<mxfile host="app.diagrams.net" agent="Mozilla/5.0 (Macintosh; Intel Mac OS X 10_15_7) AppleWebKit/537.36 (KHTML, like Gecko) Chrome/134.0.0.0 Whale/4.31.304.16 Safari/537.36" version="26.2.14">
  <diagram id="Ht1M8jgEwFfnCIfOTk4-" name="Page-1">
    <mxGraphModel dx="931" dy="588" grid="1" gridSize="10" guides="1" tooltips="1" connect="1" arrows="1" fold="1" page="1" pageScale="1" pageWidth="1169" pageHeight="827" math="0" shadow="0">
      <root>
        <mxCell id="0" />
        <mxCell id="1" parent="0" />
        <mxCell id="i6gb_gYeYcdbdpnZbGSR-95" value="" style="edgeStyle=orthogonalEdgeStyle;rounded=0;orthogonalLoop=1;jettySize=auto;html=1;" edge="1" parent="1" source="4" target="i6gb_gYeYcdbdpnZbGSR-51">
          <mxGeometry relative="1" as="geometry" />
        </mxCell>
        <mxCell id="4" value="Prisma" style="shape=rectangle;rounded=1;fillColor=#d0e9ff;whiteSpace=wrap;html=1;" parent="1" vertex="1">
          <mxGeometry x="280" y="250" width="120" height="60" as="geometry" />
        </mxCell>
        <mxCell id="i6gb_gYeYcdbdpnZbGSR-55" value="" style="edgeStyle=orthogonalEdgeStyle;rounded=0;orthogonalLoop=1;jettySize=auto;html=1;" edge="1" parent="1" source="5" target="4">
          <mxGeometry relative="1" as="geometry" />
        </mxCell>
        <mxCell id="5" value="Supabase PostgreSQL" style="shape=rectangle;rounded=1;fillColor=#f9e79f;whiteSpace=wrap;html=1;" parent="1" vertex="1">
          <mxGeometry x="460" y="250" width="150" height="60" as="geometry" />
        </mxCell>
        <mxCell id="6" value="Next.js Serverless &amp; Edge Functions" style="shape=rectangle;rounded=1;fillColor=#d0e9ff;whiteSpace=wrap;html=1;" parent="1" vertex="1">
          <mxGeometry x="20" y="440" width="200" height="60" as="geometry" />
        </mxCell>
        <mxCell id="7" value="MDX 콘텐츠 변환 (gray-matter, rehype)" style="shape=rectangle;rounded=1;fillColor=#d5f5e3;whiteSpace=wrap;html=1;" parent="1" vertex="1">
          <mxGeometry x="290" y="440" width="220" height="60" as="geometry" />
        </mxCell>
        <mxCell id="8" value="이미지 저장: S3" style="shape=rectangle;rounded=1;fillColor=#f8c471;whiteSpace=wrap;html=1;" parent="1" vertex="1">
          <mxGeometry x="20" y="550" width="140" height="60" as="geometry" />
        </mxCell>
        <mxCell id="9" value="GitHub Actions: 이미지 업로드 자동화" style="shape=rectangle;rounded=1;fillColor=#fcf3cf;whiteSpace=wrap;html=1;" parent="1" vertex="1">
          <mxGeometry x="250" y="550" width="200" height="60" as="geometry" />
        </mxCell>
        <mxCell id="10" value="AWS Lambda: WebP 변환, 리사이징, 캐시 헤더 추가" style="shape=rectangle;rounded=1;fillColor=#e8daef;whiteSpace=wrap;html=1;" parent="1" vertex="1">
          <mxGeometry x="500" y="550" width="250" height="60" as="geometry" />
        </mxCell>
        <mxCell id="11" value="포스팅 버킷 복사" style="shape=rectangle;rounded=1;fillColor=#f8c471;whiteSpace=wrap;html=1;" parent="1" vertex="1">
          <mxGeometry x="800" y="550" width="140" height="60" as="geometry" />
        </mxCell>
        <mxCell id="12" value="CloudFront: 이미지 CDN" style="shape=rectangle;rounded=1;fillColor=#d5f5e3;whiteSpace=wrap;html=1;" parent="1" vertex="1">
          <mxGeometry x="1000" y="550" width="150" height="60" as="geometry" />
        </mxCell>
        <mxCell id="13" style="edgeStyle=elbowEdgeStyle;rounded=1;html=1;endArrow=block;" parent="1" vertex="1">
          <mxGeometry relative="1" as="geometry">
            <mxPoint x="90" y="280" as="sourcePoint" />
            <mxPoint x="260" y="180" as="targetPoint" />
          </mxGeometry>
        </mxCell>
        <mxCell id="14" style="edgeStyle=elbowEdgeStyle;rounded=1;html=1;endArrow=block;" parent="1" target="4" vertex="1">
          <mxGeometry relative="1" as="geometry">
            <mxPoint x="90" y="280" as="sourcePoint" />
          </mxGeometry>
        </mxCell>
        <mxCell id="15" style="edgeStyle=elbowEdgeStyle;rounded=1;html=1;endArrow=block;" parent="1" source="4" target="5" vertex="1">
          <mxGeometry relative="1" as="geometry" />
        </mxCell>
        <mxCell id="16" style="edgeStyle=elbowEdgeStyle;rounded=1;html=1;endArrow=block;" parent="1" target="6" vertex="1">
          <mxGeometry relative="1" as="geometry">
            <mxPoint x="90" y="280" as="sourcePoint" />
          </mxGeometry>
        </mxCell>
        <mxCell id="17" style="edgeStyle=elbowEdgeStyle;rounded=1;html=1;endArrow=block;" parent="1" source="6" target="7" edge="1">
          <mxGeometry relative="1" as="geometry" />
        </mxCell>
        <mxCell id="18" style="edgeStyle=elbowEdgeStyle;rounded=1;html=1;endArrow=block;" parent="1" source="8" target="9" edge="1">
          <mxGeometry relative="1" as="geometry" />
        </mxCell>
        <mxCell id="19" style="edgeStyle=elbowEdgeStyle;rounded=1;html=1;endArrow=block;" parent="1" source="9" target="10" edge="1">
          <mxGeometry relative="1" as="geometry" />
        </mxCell>
        <mxCell id="20" style="edgeStyle=elbowEdgeStyle;rounded=1;html=1;endArrow=block;" parent="1" source="10" target="11" edge="1">
          <mxGeometry relative="1" as="geometry" />
        </mxCell>
        <mxCell id="21" style="edgeStyle=elbowEdgeStyle;rounded=1;html=1;endArrow=block;" parent="1" source="11" target="12" edge="1">
          <mxGeometry relative="1" as="geometry" />
        </mxCell>
        <mxCell id="i6gb_gYeYcdbdpnZbGSR-96" value="" style="edgeStyle=orthogonalEdgeStyle;rounded=0;orthogonalLoop=1;jettySize=auto;html=1;" edge="1" parent="1" source="i6gb_gYeYcdbdpnZbGSR-51" target="i6gb_gYeYcdbdpnZbGSR-56">
          <mxGeometry relative="1" as="geometry" />
        </mxCell>
        <mxCell id="i6gb_gYeYcdbdpnZbGSR-51" value="" style="shape=image;imageAspect=0;aspect=fixed;verticalLabelPosition=bottom;verticalAlign=top;image=https://upload.wikimedia.org/wikipedia/commons/8/8e/Nextjs-logo.svg;" vertex="1" parent="1">
          <mxGeometry x="23" y="260" width="197" height="40" as="geometry" />
        </mxCell>
        <mxCell id="i6gb_gYeYcdbdpnZbGSR-56" value="" style="shape=image;html=1;verticalAlign=top;verticalLabelPosition=bottom;labelBackgroundColor=#ffffff;imageAspect=0;aspect=fixed;image=https://cdn1.iconfinder.com/data/icons/ionicons-fill-vol-2/512/logo-vercel-128.png" vertex="1" parent="1">
          <mxGeometry x="91.5" y="400" width="60" height="60" as="geometry" />
        </mxCell>
        <mxCell id="i6gb_gYeYcdbdpnZbGSR-57" value="" style="sketch=0;points=[[0,0,0],[0.25,0,0],[0.5,0,0],[0.75,0,0],[1,0,0],[0,1,0],[0.25,1,0],[0.5,1,0],[0.75,1,0],[1,1,0],[0,0.25,0],[0,0.5,0],[0,0.75,0],[1,0.25,0],[1,0.5,0],[1,0.75,0]];outlineConnect=0;fontColor=#232F3E;fillColor=#7AA116;strokeColor=#ffffff;dashed=0;verticalLabelPosition=bottom;verticalAlign=top;align=center;html=1;fontSize=12;fontStyle=0;aspect=fixed;shape=mxgraph.aws4.resourceIcon;resIcon=mxgraph.aws4.s3;" vertex="1" parent="1">
          <mxGeometry x="62" y="541" width="78" height="78" as="geometry" />
        </mxCell>
        <mxCell id="i6gb_gYeYcdbdpnZbGSR-58" value="" style="outlineConnect=0;dashed=0;verticalLabelPosition=bottom;verticalAlign=top;align=center;html=1;shape=mxgraph.aws3.lambda;fillColor=#F58534;gradientColor=none;" vertex="1" parent="1">
          <mxGeometry x="533.5" y="541" width="76.5" height="93" as="geometry" />
        </mxCell>
        <mxCell id="i6gb_gYeYcdbdpnZbGSR-59" value="" style="sketch=0;points=[[0,0,0],[0.25,0,0],[0.5,0,0],[0.75,0,0],[1,0,0],[0,1,0],[0.25,1,0],[0.5,1,0],[0.75,1,0],[1,1,0],[0,0.25,0],[0,0.5,0],[0,0.75,0],[1,0.25,0],[1,0.5,0],[1,0.75,0]];outlineConnect=0;fontColor=#232F3E;fillColor=#8C4FFF;strokeColor=#ffffff;dashed=0;verticalLabelPosition=bottom;verticalAlign=top;align=center;html=1;fontSize=12;fontStyle=0;aspect=fixed;shape=mxgraph.aws4.resourceIcon;resIcon=mxgraph.aws4.cloudfront;" vertex="1" parent="1">
          <mxGeometry x="1036" y="532" width="78" height="78" as="geometry" />
        </mxCell>
        <mxCell id="i6gb_gYeYcdbdpnZbGSR-60" value="" style="shape=image;html=1;verticalAlign=top;verticalLabelPosition=bottom;labelBackgroundColor=#ffffff;imageAspect=0;aspect=fixed;image=https://cdn1.iconfinder.com/data/icons/bootstrap-vol-3/16/filetype-mdx-128.png" vertex="1" parent="1">
          <mxGeometry x="342" y="360" width="128" height="128" as="geometry" />
        </mxCell>
        <mxCell id="i6gb_gYeYcdbdpnZbGSR-91" value="" style="shape=image;imageAspect=0;aspect=fixed;verticalLabelPosition=bottom;verticalAlign=top;image=https://supabase.com/_next/image?url=https%3A%2F%2Ffrontend-assets.supabase.com%2Fwww%2F634f86d2d615%2F_next%2Fstatic%2Fmedia%2Flogo-preview.50e72501.jpg&amp;w=3840&amp;q=75&amp;dpl=dpl_4YaSnsxTbN5Roiq4E64BbKEwmQdg;clipPath=inset(35.56% 22.67% 38.89% 23.33%);" vertex="1" parent="1">
          <mxGeometry x="470.00000000000006" y="290" width="116.67" height="33.12851851851852" as="geometry" />
        </mxCell>
        <mxCell id="i6gb_gYeYcdbdpnZbGSR-92" value="" style="sketch=0;outlineConnect=0;fontColor=#232F3E;gradientColor=none;fillColor=#C925D1;strokeColor=none;dashed=0;verticalLabelPosition=bottom;verticalAlign=top;align=center;html=1;fontSize=12;fontStyle=0;aspect=fixed;pointerEvents=1;shape=mxgraph.aws4.rds_postgresql_instance_alt;" vertex="1" parent="1">
          <mxGeometry x="600" y="241" width="78" height="78" as="geometry" />
        </mxCell>
        <mxCell id="i6gb_gYeYcdbdpnZbGSR-93" value="" style="shape=image;verticalLabelPosition=bottom;labelBackgroundColor=default;verticalAlign=top;aspect=fixed;imageAspect=0;image=data:image/png,iVBORw0KGgoAAAANSUhEUgAAAgAAAAIACAYAAAD0eNT6AAAAAXNSR0IArs4c6QAAAERlWElmTU0AKgAAAAgAAYdpAAQAAAABAAAAGgAAAAAAA6ABAAMAAAABAAEAAKACAAQAAAABAAACAKADAAQAAAABAAACAAAAAAAL+LWFAABAAElEQVR4Ae2dCbgdRbW2zzVzgAxACEOYwgwJM8iMBFAGuV5RruB4VfSC4gCi4gwqKAj6o8gMCej1OiMKIpNCZEamBAgyEwKBhEDCmJDI/b9Fsp9MZ5+z9+7q7lVVbz3PSs7Zu7vqW++q6qpT1V3d1UWCAAQgAAEIQAACEIAABCAAAQhAAAIQgAAEIAABCEAAAhCAAAQgAAEIQAACEIAABCAAAQhAAAIQgAAEIAABCEAAAhCAAAQgAAEIQAACEIAABCAAAQhAAAIQgAAEIAABCEAAAhCAAAQgAAEIQAACEIAABCAAAQhAAAIQgAAEIAABCEAAAhCAAAQgAAEIQAACEIAABCAAAQhAAAIQgAAEIAABCEAAAhCAAASaEOijz81IEIBAhgT+LUOfcRkCORAYISe3lW0i21S2rmwt2WqyYbJBsiXTa/pltuxZ2dOyJ2RTZP+U3Sl7TkaCAAQSIsAAIKFg4krWBEbK+3fI9pXtJNtQFjI9pMxukV0tu1I2Q0aCAAQgAAEIQKAGAmurzGNlt8vekP1fRWZl3SY7RjZKRoIABCAAAQhAoGQCfZX/u2X2l/i/ZFV1+s3KMQ1Xyd4l434CQSBBAAIQgAAEQhKwNfvPyqbKmnXGdX/+uLQdJRsoI0EAAhCAAAQgUIBAf537Odl0Wd0dfKvl202ENljpJyNBAAIQgAAEINAmAZtWf1DWasfr7bgHpP2gNn3mcAhAAAIQgEC2BNaQ57+TeevQO9XzJ/nCzYLZVmcchwAEIACBVgh8VAfZ8/iddrZez3tBPn24FQAcAwEIQAACEMiJwEpy9ucyrx14KF2/kY9DcwosvkIAAhCAAASaEbDd+mJe6293cGA7DG7UDAafQwACEIAABHIgsI+cfF7Wbica+/Hm8945BBgfIQABCEAAAssS+KA+mC+LvTPvVP/r8v2wZaHwOwQgAAEIQCBlAkfIOQ87+XXaeYc6zxh8IuVA4xsEIAABCECgQeBT+iFUB5pCPvZuAQYBjdrB/xCAAAQgkCSB98sr/vJffgBkTA5NMuI4BQEIQAAC2ROwm95s3TuFv9rL8MHY7JV9LQEABCAAAQgkRWB9eTNTVkbHmVKes8Row6QijzMQgAAEIJAtgRXluT37nlJHXaYv94nVCtnWFhyHAAQgAIFkCEyQJ2V2mCnmfWEy0ccRCEAAAhDIkoDd9JdiB12FT8aOBAEIQAACEIiOwFpSnOMuf6EGB/ZSpHWiizqCIQABCEAgawL/Ju+vkIXqDHPN5xoxNJYkCEAAAhCAQBQE2Own3ODnyCgijkgIQAACEMiegD3y96Is17/aQ/v9sljy9sDsmxUAIAABCPgm8BbJu14WuhPMPb8bxbSP79CjDgJxEaBBxRUv1PoncKwkHu5fZnQK15bil2Q3RaccwRCAAAQgkDyBzeThq7Lc/1ovy/+5Yjsm+VqEgxCAAAQgEBWBvlJ7m6yszo98F7K9U4z7RVUzEAsBpwRYAnAaGGRFR+AbUvyB6FTHJ3gNSV4gs/ssSBCAAAQgAIFaCWyt0ufJ+Cu9GgbzxXr7WiNO4RCAAAQgkD2BASIwSUbnXy0De2HQwOxrHwAgUIAASwAF4HEqBETgJNnBkKicwAiVaPcC2E6BJAhAAAIQgEClBHZWabYezV//9TD4l9jvXmnEKQwCCRFgj+2EgokrlRIYrNLukm1caakUtiyBR/XBVjLbLZAEAQi0QYAlgDZgcSgEliDwQ/28/xK/82M9BIar2JVk9uIlEgQgAAEIQKBUAuOU+xsypv59MLBYvKPUiJM5BBIkwBJAgkHFpVIJDFHudtf/uqWWQubtEpimE8bKZrd7IsdDIFcCLAHkGnn87pTAmTpxr05P5rzSCNjAzJ4M+GNpJZAxBCAAAQhkS+Cd8pxpf98M3p1t7cRxCLRJgCWANoFxeLYEhsnze2VrZUsgDsenS6YtBcyKQy4qIVAfAXt3OQkCEOidwNk6hM6/d051H2HvCjijbhGUDwEIQAACaRCwaWWm/uNi8J9pVD28gEB5BFgCKI8tOadBwG4ss6n/1dJwJxsvbAlgjOyZbDzGUQi0SYAlgDaBcXh2BGzqn84/vrCvIsnnxicbxRCAAAQg4IHARyWCqf+4GfyXh4qEBgh4JMASgMeooMkDAbvhb7LMtpolxUtgjqRvKZsarwsoh0A5BFgCKIcrucZNwAbGF8jo/OOOo6kfKhsv448do0GCwBIE2AlwCRj8CIFFBI7S/5+BRjIE1pcnM2W3J+MRjkAgAAFGxQEgkkVSBEbLm3tkKyblFc68KgRbyx4CBQQgsJAASwDUBAgsJmDtwaaL6fwXM0nlp8Fy5CIZs56pRBQ/ChOgMRRGSAYJEThWvhzu1B+blfit7B+yFWS2PwGpPQJr6/CXZTe1dxpHQwACEIBAygS2kHOvybw99mfvuj9StuRynf18hGy+zJte73osxhZrEgQgAAEIQKCrnxjYX9YeO68TeojPD5xq9shxSU0Wa4s5CQIQgAAEMifwLfm/ZAfh5efeOqpNnOr2wq8nHd/KvM7jPgQgAIHsCWwrAq/Leuos6viulalqu4enDm0plGkxt9iTIAABCEAgQwID5PMkmccOzW5IbCV51B6LpvsFeGArkDkGAhCAAATSInCK3PHYWd0oXa0+oeNRf0yaTk6rSuMNBCAAAQj0RmBnHbBA5q2zekWaNupN/BLfe9Mfm55/ieUeS/DkRwhAAAIQSJiAbQrzoMxjZ/WpNrl79CE2TY+I+YptcudwCEAAAhCIkMAZ0uyxk7pGupZ83r8VtB79iFHTT1qBzTEQgAAEIBAvgXGSbpvreOukZkvTOh1g9eZHrHqsTryjA/6cAgEIQAACERCwV8M+IfPYSX2kQ34efYlV0zTFgFdAd1gROQ0CEICAZwLjJc5j5/THAtA8+hOzpgsLxIJTIQABCEDAIYGDpMljxzRTulYvwMujT7FrOrhAPDgVAhCAAAQcEVhFWqbLPHZM/1mQk0efYtc0QzFZrWBcOB0CEIAABBwQ+JU0eOyUfhGAjUe/UtD0+wCxIQsIQAACEKiRwKEq22OH9LR02cxE0eTRt1Q0va9ocDgfAhCAAATqIbCGin1O5rFDOjAQEo++paLpBcVorUBxIhsIQAACEKiQgE3jeuyMzg/IwKN/KWn6U8BYkRUEIAABCFRA4OMqw2NH9KR0DQvov0cfU9P0sYDxIisIQAACECiRwCjlbdO33joi223u7YH99uZjinrmKGbrBo4b2UEAAhCAQGACtpf+X2QeO6LTA/tq2Xn0M0VN14p1u+9pKCHcZAkBCEAAAs0IfEZfeOyAynrjnEdfU9V0VLNKx+cQgAAEIFAvgdEq/iWZtw7I3jm/e0lovPmasp5XFMONS4oj2UIAAhCAQIcE3qLzJso8dkDf69CnVk7z6G/Kmm5SUPq0EhiOgQAEIACBagh8WcV47Hjuk66BJSLw6HPqmr5UYjzJGgIQgAAE2iCwuY59Teat45kvTdu34Ucnh3rzOQc9cxWosZ0Ei3MgAAEIQCAcgb7K6naZx47nm+HcbJqTR79z0HSXItK/aVT4AgIQgAAESidwgkrw2OHcIV39Svfep+8e41GGpuMriC9FQAACEIBANwS20Wevy8q4uBfJ06aIx3Sjt4yPiujk3GJ1x5Z4digjqOQJAQhAAALNCQzQV5NlHjuxLzSXHfwbj/7npOl+RXRQ8KiSIQQgAAEINCXwA33jsaO5UbqqfEzMI4PcNJ3StJbyBQQgAAEIBCWwi3JbIPPW0bwsTRsF9bT3zLwxyFGPbfS0R++h4ggIQAACEChCYLBOflDmsaM5sohjHZ7rkUOOmh5V/FbsMIacBgEIQAACLRA4U8d47GCuka46XhbjkUWumn7aQv3lEAhAAAIQ6IDA3jrHXqnrrYOZLU3rdOBPiFO8schZj9XN/UIElTwgAAEIQGAxgaH68QmZxw7mI4tlVv6TRx45a5qmGjC88lpAgRCAAAQSJjBBvnnsWC6tmblHJrlrGl9znaB4CEAAAskQOEieeOxUZkrX6jVT9sgFTV1dB9dcLygeAhCAQPQEVpUH02UeO5VDHND1yAVNXV0zVDdWc1A/kAABCEAgWgK/knKPHcr/OCHqkQ2aFtbZS5zUEWRAAAIQiI7AYVLssTN5WrpWdkLTIx80La63hzqpJ8iAAAQgEA2BNaR0lsxjZ3KgI4oe+aBpcb19QXVllKP6ghQIQAAC7glcJoUeO5LznJHzyAhNS9fdK1Vn6tgkyllVRQ4EIACB3gkcrkM8diKPS9eQ3uVXeoRHTmhavv5+vNJaQWEQgAAEIiSwrjTPkXnrRGyXt7c75OmNE3q6r7svqe5s4LD+IAkCEICACwI2TWrTpR47kdNdEFpehEdWaOq+Dl+r8LEUsHwd5hMIQAACXZ8VA4+dx8PS5fVNbx55oal5Pf4M7RwCEIAABJYmMFq/2jSpt87D3vW+29JSXf3mjRd6eq7Dr6j2bOyqBiEGAhCAQI0E3qKyJ8o8dh4n1cillaI9MkNTz3X5JgW2TyvB5RgIQAACqRP4ihz02GncJ10DncP3yA1Nvdfn45zXK+RBAAIQKJ3A5irhNZm3TmO+NG1fuvfFC/DGDT2t1eW5Cv2WxcNPDhCAAATiJNBXsm+Xeew0vhEJUo/s0NRanb5Ldax/JPUMmRCAAASCEvi2cvPYWdwhXf2CelpeZh75oan1en1CeVWDnCEAAQj4JLCtZL0u89ZZ2NTsGJ/IulXljR962qvTttS0Y7eR5UMIQAACCRIYIJ8myzx2FsdExtsjQzS1V7enqM4NiqzeIRcCEIBARwRO01keO4kbpCu2x7M8ckRT+/X71I5aEidBAAIQiIjArtK6QOatk3hZmjaMiGNDqjeO6OmsbtuGU3s2gsr/EIAABFIjsIIcekjmsZM4IlLYHlmiqbM6/qjq4EqR1kNkQwACEOiRwFn61mPncLV0xfqSFo880dR5PT+zxxbElxCAAAQiJLCPNNsrdb11DrOlaZ0IeTYke+OJnmJ13NrI/o3g8j8EIACB2AkMlQNPyDx2Dh+OHK5HpmgqVtenqU4Oj7xeIh8CEIDAmwQu0r8eO4VLE4iPR65oKl7fJyRQN3EBAhDInMC/y3+PHcJM6Vo9gdh4ZIumMHX+PQnUT1yAAAQyJbCq/J4u89ghHJJITDyyRVOYOj9DdXRkIvUUNyAAgcwI/Fr+euwMfp5QHDzyRVO4ev+HhOoqrkAAApkQ+ID89NgRPC1dKycUA4+M0RS27r8/ofqKKxCAQOIE1pR/s2QeO4IDEmPvkTGawtb9F1RnRyVWb3EHAhBIlMDl8stjJ3Bugrw9ckZT+Pp/lepurJtVJdjscAkCEOiOwCf0occO4DHpGtKd4Mg/88gaTeW0gcMjr6vIhwAEEiawnnybI/PWAdiLVvaSpZi8sUZPefXfXli1QYqVGJ/qIfCWeoql1AQJWF26UObxr+yfSNffEmSOS3kRsJdpTZBx3c4r7ngLAfcEPieFHv/6e0C6Brun17lAj8zRVG5b+Gzn1YUzIQABCIQlsImye1Xm7cJvU/+7hXXVXW7emKOn/Hbwmmrh5u5qIoKiI8BUUnQhcyfY6tD5skHulHV1fV+abnCoC0kQKEJgoE6+QNanSCacCwEIQKAoga8qA49/9d0nXXahTD15ZI+matrEV1Kv3PhXLgGeKy2Xb+q52zTkHTJvHe0CadppkTb9l3SyzpaUJ4HX5fYOskl5uo/XRQmwBFCUYL7n95XrF8u8df4WkRNkNjAhQSBlAv3lnLVB+58EAQhAoDIC31FJHqd6rePvVxmF+gvyGAM0Vds2vl1/NUQBBCCQC4Ft5ahNP3q70M+Vpi1yCcIiP73FAD3Vt4v5qgtvzaze424AAiwBBICYWRYD5K9NO3r8K9tuirKb/0gQyImALcdNkHl8EienOOArBJIn8EN56PGvPHvcL8fHojzGAk31tJHTkr/64CAEIFAbgV1Vst1h7+0Cb3ukb1gblXoL9hYL9NTXPmzjqz3rrY6UDgEIpEjA9iF/SObxAv/fKQJv0SeP8UBTfe3kUdWblVqsOxwGAQhAoCUCZ+sojxf2q6Ur5/0sPMYETfW2lbNaatEcBAEIQKAFAvvomDdk3i7ss6Vp7Rb0p3yIt5igp/52Ym11/5QrPb5BAALVEBiqYqbKPF7YP1QNAteleIwLmupvL0+p1g53XXMRBwEIuCfwMyn0eEG/1D25agR6jA2afLQZe1yXBAEIQKAjAu/SWR4v5jOla2RHHqV3ksf4oMlPu3lvelUejyAAgbIJrKoCnpF5vJgfUrbzEeXvMT5o8tNuGCxH1JirlspOgFUTj6c8u5PY41/ZP5eu38SDEaUQqJWADeTPqVUBhUMAAlER+KDUevwrzm5sWjkqkuWL9RgnNPlrPx8ovypSQmwEcn5+OrZYVaV3TRU0Weaxoz1Quv5cFYhIyrHOlgSB3gjYI7Nbyp7s7UC+z4cASwD5xLpVT8/TgR47/3Oli86/1ShyHASWJjBMv14g44++pbnwGwQgsIjAJ/W/x+nbx6SL7U27r6Ye44Umn+3I4vKJ7qsRn+ZIgNFgjlHv3uf19PEkmbeO1nY121t2nYy0PAG7qJMg0CqBV3Tg1rKHWz2B49IlwBJAurFtxzOrB+Nl3jp/8+HHsuvsBxIEIFCYwArKYYKMa39hlGQAgTQIHC03PE7bPiBdg9JAXJoXHuOGJp/tacm4fL60GknG0RBgCSCaUJUmdBPlfJfMW0e7QJp2k90qIzUnYBd1EgTaJTBXJ2wvu6/dEzk+HQJMA6UTy0486auTLpJ56/zNl5NldP5GggSB8AQGKktr+/3CZ02OEIBADAS+JpFLTgt6+dn+KrELFKl3Al5ihg6fbam3uHy19yrGEakSYAkg1cj27tdWOuQ2Wf/eD630iPkqbWfZHZWWGm9hdoEnQaBTArS3TsklcB5LAAkEsQMXbNrPNgXx1vmbKyfI6PyNBAkC5RPwfC0o33tKgECGBE6Uz71NDdbxvXX8rEm2VyHriBNl+mw/ReLy3faqHUenQIAlgBSi2J4P2+nwm2XeOtp50mTauCtZENpIdtEnQaAoAZ66KUowwvNZAogwaAUke77z9yvyi86/QHA5FQIFCHh+IqiAW5wKAQg0CPxIPxSZJizr3Bukq09DJP+3RaCsmJCvz7ZSdlx+2Fbt4+CoCbAEEHX42hK/q46eKPM26/OKNLE3eVuhXOpg6xBIEAhFgHdvhCIZQT7eOoMIkEUp0fP+38eIKC8mibJaITpBAtYnjJd5fC9IgrhxCQLlEzhHRZQ9ddhJ/ldJF7NQxeLfCXfO8dkePMXl7GLVkrMhAAEPBPaVCJvW83RxMS2zZWvLSMUIeIsrevy1tU5iYteMA4pVTc72ToC/vrxHqJi+YTp9ksxjR/sh6fp5Mfc4WwTs4k6CQBkEnlamY2XPl5E5edZPgHsA6o9BmQrOUOYeO/9LpYvOv8zIkzcEihNYU1mcXjwbcoAABKom8C4V2MnUX9nnzJSukVXDSLi8suNF/j7bUZVxeW/C7Sdr11gCSDP8q8qte2UeO9pDpOu3aWKvxSvrCEgQKJPAc8p8jOzZMgsh7+oJsARQPfMqSjxLhXjs/G3an86/ihpAGRAIR8D+oLAniUgQgIBzAnZzXZXTg62W9ZR0reycXYzyWuXPcT7bRUxx+WCMDQTNzQmwBNCcTYzf2E07k2XeOlq7yB0ou0JGCkvA2JIgUAWBOSrEngp4sorCKKN8AiwBlM+4qhJsMHe+zFvnb/6fK6PzNxIkCMRLYKikXyjjD8d4Y4jyRAkcIb88Tic+Jl1sK1pepfMYczT5bIuh4vLf5VVncq6SACO5KmmXV9b6yvoembeOlheLlBfzRs52USdBoEoCvMCrStollsUSQIlwK8raYjhe5q3zN/dtE5Hr7AcSBCCQDIHGy8V4hXcyIcWRWAkcI+GhpvZC5vOAdA2KFWpEukPGjLx8tiWvcTk6onaC1G4IsATQDZSIPtpUWu+UeetoF0jTbrJbZaRyCVjnQIJAHQTmqdDtZPfVUThlFifAEkBxhnXl0FcFT5B56/yNx8kyOn8jQYJAugQGyLWLZf3SdRHPIOCTwNcly+PU4N3S1d8nsiRVeawDaPLZNsuKy9eSbFkZOMUSQJxB3kqyb5N562jnS9POsjtkpGoI2EWdBIE6CdiS304y2n2dUeigbJYAOoBW8ynW6du0m7fO37AcL+MiYCRIEMiHgC1H2jVpYD4u4ykE6iFwkootayqvSL7/kC7WAquvE0Vixrk+21KscTmx+upPiUUIsARQhF7159o02w0yb8/fzpWm7WXcDSwIFSfrLEgQ8EDANv7aU2bXKFIEBFgCiCBIiyTa9NoFMm+dv8n7iozO30iQIJAvAetPzpd5fDIp36jgeRIE/p+88Dg1aKN9BpL1VTGPdQJNPttqVXH5UX3NgZLbIcASQDu06jvWNtW5Xuato2VP8PrqRKNku6iTIOCJgC0F7CP7mydRaFmegLcOZXmFfNLYd9tjrGwr0IcJEQQgAIElCNi1yl4bPGSJz/jRIQGPnYpDTLVKsqn/DWpV0H3hV+tjW+8jQQACEFiWwHr64NRlP+R3XwRYAvAVj2XV7KsPrpR5i9NsadpS9qSMVC8BlgDq5U/pPRM4UF//uedD+LYuAt46lro4eCx3mERNlo1yKO6D0vQ/DnXlKIkBQI5Rj8fn6ZI6RvZ8PJLzUcoSgN9Y/1TSPHb+l0oXnb/feoMyCHgisIbE/NiTILRAwDuBd0mg/WXnzWZK00jv8DLT562OoMdfu/UQk0Mya5dRuMsSgL8wjZAkm/r32NFaI/6tP2RZK7KLOwkC3gk8J4G2FPCsd6E56WMJwF+0z5Ikj53/z6SLzt9ffUERBGIgsKpEnhuDUDRCoC4CH1HBHqbrltXwlHStXBcUyu2RwLKx4nefbYi4LIzLh3uszXxZKQGWACrF3WNha+lbm/of3uNR1X9pFy57lOeK6oumxBYIWHxIEIiFwBwJtUeIp8YiOGWdLAH4iK4NxM6Teev8jc45Mjp/I0GCAASKEhiqDOylZvzxWZQk5ydD4Eh54nGK8FHpWikZymk64rHeoMlne/YUlyPSbI5xecUorP54rS8J98i8dbT2Qo9xsutlJL8E7KJOgkBsBF6R4K1lD8cmPCW9LAHUG03jP17mrfM3KvYOAjp/I0GCAARCE2i85KxP6IzJDwKxEPiChHqalmtomSJdg2KBmLnORsz432dbIi49x+WYzNtvre6zBFAf/k1V9J0ybx3tAmnaTXarjOSfgHUwJAjESmCehG8vuzdWB2LWzRJAPdHrq2Ivknnr/I3G92V0/kaCBAEIlE1ggAqwa2G/sgsi/+UJMABYnkkVn3xVhexYRUFtlmE3I36nzXM4HAIQgEARAtvq5OOKZMC5nRFgCaAzbkXOsjtf7S/s/kUyKeHc15XnDrJJJeRNluURYAmgPLbkXB0BW3rcWfaP6oqkJGYAqq0Djekub52/UTheRudvJEgQgEDVBBrLogOrLjjn8hgAVBv941WcbYPpLd0iQad4E4UeCEAgKwKby9tvZuVxzc6yBFBdAHZSUTfIvD33OleatpPdLyPFR4AlgPhihuLmBGwDsj1ldq0klUyAGYCSAS/KfrD+tztdvXX+Js9uvqHzNxIkCECgbgLWJ02QrVi3kBzKZwBQTZTt0bqNqymqrVJslP2Tts7gYAhAAALlEthA2Z9YbhHkbgRYAii/HoxTEdc4ZG17cW8le0RGipcASwDxxg7lzQlYvd5PdlXzQ/imKAFmAIoS7Pl8m8Y6V+ZxoHW0dNH59xw/voUABOohYNdMu3YOqaf4PEplAFBunO2FOjad5S1dLUHnexOFHghAAAJLEFhXP5+2xO/8GJiAx79MA7tYW3ZvV8l/kXljPFuaxsqmyUjxE2AJIP4Y4kHPBN6pry/v+RC+7YSAt86pEx88njNMoibLRjkU9wFp+oVDXUjqjAADgM64cVY8BKZL6hjZ8/FIjkMpSwDlxOlMZeux879Uuuj8y4k5uUIAAuUQWEPZ8rRSCWyZAQgP9T+U5SXhsy2c40zlYFP/zxbOiQw8EWAGwFM00FImgfcp81+XWUBueTMACBvxEcrO3mu9Wthsg+T2XuXyuyA5kYknAgwAPEUDLWUSeE6Z2x8xz5RZSE55swQQNtpnKzuPnf/F0kXnHzbW5AYBCFRLYFUVZ48GkiDgjsB/SZH9NebNnpKm4TJSmgS81Tf0+LsGpBaTj6TZlKv3iiWAMMzXUjZ217+3jtYa/oGyK2SkNAlYjEkQyInAHDlrb1WdmpPTZfjKEkBxqjaIsk11vHX+5pktSdD5GwkSBCCQCoGhcuRCGX/AphLRiP34lLR7nGJ7VLpWipgr0lsj4LHuocnnNSG1uBzZWhPhqGYEGEE1I9Pa5+vrsHtk3jpae6f2ONn1MlLaBOyiToJAjgTshWbbyB7K0fkQPrME0DlFYzde5q3zN49+JKPzNxIkCEAgVQIryLEJsj6pOohffgl8UdI8TqlNka5BfrGhLDABj3UQTT6vDanG5djAbSqb7FgC6CzUm+m0O2TeOtoF0rSr7DYZKQ8CdlEnQSBnAvPk/Paye3OG0InvLAG0T62vTrlI5q3zN0++J6PzNxIkCEAgFwID5OjFsn65OBzKTwYA7ZP8mk7Zof3TSj/Dbkb8bumlUAAEIAABfwTsZsCv+JPlWxFLAO3FZ2sdfqusf3unlX60TYHtKJtUekkU4I0ASwDeIoKeugjYEujOsn/UJSC2cpkBaD1ijWkmb52/eXC8jM7fSJAgAIFcCTSWZwfmCqBdvxkAtE7s2zp0bOuHV3bkLSrpB5WVRkEQgAAE/BLYXNKO9yvPlzKWAFqLh00r/V3m7XnTV6XJ1r4elJHyJMASQJ5xx+vmBGwjtLfJ7JpN6oEAMwA9wFn01WD9P0HmrfM3eXbTC52/kSBBAAIQWEjA+rUJshUX/sq/zQgwAGhGZvHnJ+vHjRf/6uanG6TkDDdqEAIBCEDAD4HRknKSHzk+lbAE0HNcxunra2TeONke2FvJHpGR8ibAEkDe8cf75gSsbewvu7L5IXl/wwxA8/gP0VdeXzn5eWmj828eO76BAAQgYH+42avah4GiewIMALrnYp/aC3XWbf51bd9crZIvqK10CoYABCAQD4FRknpqPHKrVeptarta75uX9k599afmX9f2zWyVbI8iTqtNAQV7I8ASgLeIoMcjgYMl6hKPwurUxABgefo2XTRZZiNHb+n9EvS/3kShp1YCDABqxU/hkRCYLp32x9OsSPRWIpMlgOUxn62PPHb+f5AuOv/l48UnEIAABHojsIYO4KmpZSgxA7A0kHfr198v/ZGL32ZKxRjZDBdqEOGJADMAnqKBFu8E3ieBv/Yusip9DAAWkx6hH+190qst/sjNT++Vkt+5UYMQTwQYAHiKBlq8E7AlAPtj6hnvQqvQxxLAYso29e+x879Iuuj8F8eJnyAAAQh0SmAVnXhupyendh4zAAsj+lH9Z8/8e0tPSdBY2QvehKHHDQFmANyEAiEREbBr/oSI9JYilQFAV9daImt3/Q8vhXDnmdqF/UDZFZ1nwZkZEGAAkEGQcTE4gTnKcUvZ1OA5R5Rh7ksANgCynaK8df5WhWxJgs7fSJAgAAEIhCUwVNl53ek1rKc95Jb7AODTYrNfD3zq+uoxFfzlugqnXAhAAAIZENhbPn4qAz+bupjzEsBoUblHtmJTOvV8Ye+yHie7vp7iKTUyAiwBRBYw5Loi8KrUbC17yJWqisTkOgNgfo+Xeev8Lew/lNH5GwkSBCAAgXIJDFb2F8n6lFuMz9xzHQAcq3Ds4TAkD0jTNx3qQhIEIACBVAnsLMeOSdW5nvzKcQlgMwG5UzawJzA1fLdAZe4qu62GsikyXgIsAcQbO5T7ITBPUnaQ2RNh2aTcZgD6KrI23eOt87cKd5KMzt9IkCAAAQhUS2CAirO+oV+1xdZbWm4DgK8Lt43yvKW7JehEb6LQAwEIQCAjAtvI169m5G9XTksAFtxbZd5GeDb1tKNskowEgXYJsATQLjGOh0BzArYUu4vs9uaHpPNNLjMAnqd3vqXqROefTpvCEwhAIF4CnpeJg1PNZQDwHZGzPfW9pZsl6FRvotADAQhAIGMCdqP4CTn4n8MSgD3i8XeZt+c8bQMKW5Z4UEaCQKcEWALolBznQaA5AduQbS/ZxOaHxP9N6jMAnjd5OE7Vh84//jaEBxCAQHoErG8cL/O4WVww2qkPAE4RqY2C0QqX0V+V1RnhsiMnCEAAAhAITGC08vte4DxdZZfyEsA4kb5G5s3Hl6XJ9p5+REaCQFECLAEUJcj5EGhOwNrX/rIrmx8S7zepzgAMUUhs+sZb52815fMyOn8jQYIABCDgm4D1IRfIhvuW2Zm6VAcApwvHOp0hKfWsq5T7haWWQOYQgAAEIBCSwFrK7LSQGXrJy+NfyEXZHKQM/lg0kxLOn6087VHEaSXkTZb5EmAJIN/Y43m1BN6j4n5fbZHllpbaAGAV4bpXtnq52DrK/TCd9cuOzuQkCDQnwACgORu+gUBIAjOV2RjZjJCZ1plXaksAZwqmx87/D9JF519nTadsCEAAAsUIjNDpZxfLwtfZKc0AHCq0/+sL75tqkhs1OmScsyRmAHKOPr7XQcD6ml/VUXDoMlMZAKwmMPYeZ/vfW0pu3cgb4Mz1MADIvALgfuUEZqlEWwp4pvKSAxeYyhKATct47PwnSFdSN40Ern9kBwEIQCA2Anav2Xmxie5ObwozAB+TY/acprf0lATZXf8veBOGnqQIMAOQVDhxJiIC1veMj0jvclJjHwCMkkc29T9sOc/q/cAuygfI/lKvDErPgAADgAyCjIsuCbwoVVvKnnCprgVRMS8B2ODlfJm3zt+wnyWj8zcSJAhAAAJpErAdZ21jt2j/kI55AHCUwL/DYb16TJqOc6gLSRCAAAQgEJbAOGX36bBZVpdbrCOX0UJ0j8zbqxrfkKa9ZBNlJAhUQYAlgCooUwYEmhN4VV9tI4vu9e4xzgCY5gkyb52/JL25XzSdv5EgQQACEMiDwGC5OUHWJzZ3YxwAfFGQd3cIeoo0fcuhLiRBAAIQgEC5BHZW9l8ot4jwuce2BLCZENwpGxgeRaEcF+jsXWS3F8qFkyHQPgGWANpnxhkQKIPAPGW6g8yeTIsixTQD0FdEL5J56/wt0CfK6PyNBAkCEIBAngQGyG3ro/rH4n5MA4BvCKqNrryluyXoJG+i0AMBCEAAApUTsJsBv1p5qR0WGMsSgEG9VdavQz/LOi26KZ+yQJBvbQRYAqgNPQVDoFsC0SwJxzADYNMqF8u8df4WebvpL5r1HhNMggAEIACBUgk0lqsHlVpKgMxjGAB8V37am5e8pZsl6FRvotADAQhAAAK1E7Ab1k+oXUUvArwvAdid9RNl3p6vjHbjh17qA1/HR4AlgPhihuI8CLjfGM7zDIDnzRW+rPob3a5PebQ5vIQABCDggoD1rxNkHjetexOQ5wGATa9v9KZKX//8VXJ+6ksSaiAAAQhAwCGB9aXpZIe63pTkdQlgb6m7WuZNX/Svf/RaEdHVMQGWADpGx4kQqISAtVGXr4f3OAMwVLC8vmLxaGl7opIqQyEQgAAEIJACAftD1l5dP9ybMx4HAKcL0jreQEnPZTIbmJAgAAEIQAAC7RBYSwf/sJ0TqjjW2xT7QXL6j1U43mYZs3X8WNm0Ns/jcAiUTYAlgLIJkz8EwhF4j7L6fbjsiuXkaQCwqlyxTXVWL+ZSKWcfplx/WUrOZAqBYgQYABTjx9kQqJLATBVm+9rMqLLQZmV5WgKwO+s9dv6XSBedf7MaxOcQgAAEINAqgRE68JxWDy77OC8zAPYX9i/KdraD/F2N1jrQzynpE2AGIP0Y42F6BFzMKnsYAKyh2NrU/yoOY+xqvcYhHyTVT4ABQP0xQAEE2iXg4r4yD0sA54mcx85/vHS5uVmj3drF8RCAAAQg4JbAMCm7QFbrH+F1DwAOF4ADHYboKWn6gkNdSIIABCAAgTQIvF1ufKxOV+ocfYyS45NlNhLylGxK1eWuTZ4gocUNAZYA3IQCIRBom0Ctu8vWNQNgAw+b/vDW+Vv0zpT9xX4gQQACEIAABEokMER517bzbV0DgM/IaZv+8JYek6DjvIlCDwQgAAEIJEtgnDw7qg7v6lgCGC1H75F5e0XiG9K0l2yijASBWAiwBBBLpNAJgeYEXtVX28gqfc181TMAVt4EmbfOX5K6TpPR+RsJEgQgAAEIVElgsAqbIOtTZaFVDwC+JOd2r9LBFsuaouO+2eKxHAYBCEAAAhAITWBnZXhs6Ex7yq/KJYDNJeQO2cCeBNXw3QKVuYvs9hrKpkgIFCXAEkBRgpwPAT8E5knKjrJJVUiqagagr5y5SOat8zfGJ8ro/I0ECQIQgAAE6iQwQIVbX9m/ChFVDQBsen37Khxqs4y7dLwNAEgQgAAEIAABDwS2loivVSGkiiWAbeXILbJ+VTjURhk21bKDzDYjIkEgVgIsAcQaOXRDoDkBW5reVXZb80OKf1P2DIBNY/xM5q3zN3I2K0HnbyRIEIAABCDgiYAtm4+XlboUUPYAwPbTt5v/vKWbJcge+yNBAAIQgAAEPBKwvvPoMoWVuQSwtoTb43UrlOlAB3nXsuFCBzo5BQKtEGAJoBVKHAOBOAlYf7WF7PEy5Jc5A/BjCfbW+RtD24ug0t2WrFASBCAAAQhAoE0Cg3X8qW2e0/LhZc0AHCAFl7esoroDr1VR+8r4q6k65pRULgHqcrl8yR0CHgjsJxFXhhZS1gDA1th3Ci22YH722sWxsqkF8+F0CHgiwADAUzTQAoFyCNymbN8aOusylgD2lkhvnb9x+7yMzt9IkCAAAQhAICYCtjvgnqEFlzEA+HJokQHyu0x5jA+QD1lAAAIQgAAE6iAQvG8NvQRgOxjdKQudbxHYs3TyGNkzRTLhXAg4JcASgNPAIAsCJRDYTnlaHxskhZ4BsGl2T52/Qfq0jM7fSJAgAAEIQCBmAtafBUshO+uBUmUd7dBg6opndImyOLh4NuQAAbcEmAFwGxqEQSA4AbuZfaRsboicQ84AHChBnjr/GdJzRAhI5AEBCEAAAhBwQGCINOwXSkfIAcBhoUQFysc6fxsEkCAAAQhAAAKpEDg0lCOhlgBWkqBnZYNCCSuYzwSd/9GCeXA6BGIgwBJADFFCIwTCEbDtgW0Z4OWiWYaaAdhDQrx0/k9JyzFFwXA+BCAAAQhAwCGBwdK0WwhdoQYA9t5iD8n+Gvq47AUPYtAAAQhAAAIQKIFAkD431AAgyGgkAKSfKo/g+yUH0EUWEIAABCAAgVAEgvS5Ie4B6C+PZsvqXgJ4TBpsr/9XZCQI5EKAewByiTR+QmAxAbsPYLjs9cUftf9TiBmAbVRs3Z2/ef5ZGZ2/kSBBAAIQgEDKBOw+ANt5t1AKMQDYuJCCMCdPVDa23z8JAhCAAAQgkAOBjYo6GWIAsF5REQHOPy1AHmQBAQhAAAIQiIXAekWFpjAAeE4QrigKgvMhAAEIQAACERFYt6jWFAYAlwvC/KIgOB8CEIAABCAQEYH1imoNMQBYu6iIguffWPB8TocABCAAAQjERqBw3xtiAGB3I9aZJtdZOGVDAAIQgAAEaiAwsGiZIQYAfYuKKHj+kwXP53QIQAACEIBAbARsD55CKcQAoLCIQh7w7H9BfJwOAQhAAAIREuhXVHOIAUDdMwBFGXA+BCAAAQhAIDYCLgYAIbYTLgJ+1SIncy4EIAABCEAgQgKF+94QMwCzagZX+FnImvVTPAQgAAEIQKBdAoX73hADgBntqg58/LaB8yM7CEAAAhCAgHcCzxYVmMIAYI+iEDgfAhCAAAQgEBmBmUX1hhgAFBZR0IlxOr/uvQgKusDpEIAABCAAgbYIFO57QwwAprUlOfzB1vm/P3y25AgBCEAAAhBwS6Bw3xtiAHCPAzxHS0MfBzqQAAEIQAACEKiCwKSihYQYANxVVESA8zdXHh8LkA9ZQAACEIAABGIgULjvLfwcoShZHvY4wvCaic1R+VvKptasg+IhUCWB/6uyMMqCAARcEJgtFSvLCrX/EDMAJsDDMsBQ6filbJCMBAEIQAACEEiVwN1yrFDnb2BCDAAsn1vsHwdpZ2n4hazu9xM4QIEECEAAAhBIlECQPjfUAOBPjiD/h7RcKrMZARIEIAABCEAgNQJB+twQ9wAYWBtITJetZr84SQ9Lx4dkQUZKTnxCBgSWJVB4GnDZDPkdAhBwTcB2AFxT9kZRlaFmAEzI5UXFBD5/Q+V3o+w8mcEiQQACEIAABGIncJkcKNz5G4RQAwDL64/2j7Nk/h0ue0j2fdkwGQkCEIAABCAQKwFb4g6SQi0BmJiBsidlnl/P+7z02UDgDNlrMhIEYifAEkDsEUQ/BFonYNv/riOb2/opzY8MOQNggs5vXpSLb+y5yVNkNiPwSVlfGQkCEIAABCAQA4FzJTJI52/OhpwBsPxsZPKILJaO9Z/S+g3Zb2X8JSUIpOgIUG+jCxmCIdARgQU6a33ZtI7O7uakkDMAlv1Umcd7Abpx/c2PNtG/v5bZkwLj3vyEfyAAAQhAAAL+CFwiScE6f3Mv9ADA8jzd/oks7Si918r+LNs6Mu3IhQAEIACB9An8OLSLZQwAJkqkdaQxpv0l+k6ZzQpsGKMDaIYABCAAgeQI2MY/N4T2KvQ9AA19m+mHSbK+jQ8i/H++NI+XHS+zTY5IEPBIgHsAPEYFTRAIR+Bfymor2X3hslyYUxkzAJbzFNkFC4uI9t9+Um5PCjT2EGBr4WhDiXAIQAAC0RI4R8qDd/5Go6wZAMt7pMw6z5XslwSSPX95kuws2bwE/MGFNAgwA5BGHPECAt0ReFEfbiSb0d2XRT8rawbAdNl+xV8sKtDR+SOk5Ueyxh4CfRxpQwoEIAABCKRH4AtyqZTO31CVOQPQCIU9FnhQ45eE/rdljm/JfpOQT7gSHwFmAOKLGYoh0AoB2/LX3m5bWqpiAGB/OdsNgauX5kW9GdseAsfJrq9XBqVnSoABQKaBx+2kCdiS81iZzaSXlspcAmiINkc+IUv1QrWTfLtOZqO1LWQkCEAAAhCAQKcErK/8qKzUzt/EVTEAsHLs9YXfsR8STv8u32ymw/YQGJ2wn7gGAQhAAALlEThBWV9eXvb15GzLDRNkNrpJ3ewpAXt0w56EIEGgTAKptyX8S/96SYwXx/gXulhYX1lJqqygRd7Ys/W2S+A+lXhXfyEvS8JPZfb4oD3OQYJAaAJ28SRBAALxE7hOLuwnq+wx86oHABaiYbLrZVvaL5mkZ+SnLYGcJ5ufic+4WQ0BBgDVcKYUCJRJ4B5lvqdsTpmFLJt3VfcALFnubP3yNtlNS36Y+M/2BITNBLCHQOKBxj0IQAACbRK4XcfvLau08zeNdQwArNwXZG+XXWW/ZJTWla92b4CN9g7JyG9chQAEIACB5Qn8TR9Z5z9r+a/K/6SuAYB59orMNgj6rf2SWbLHBe1pgRtlu2fmO+5CAAIQgEBXl22Sd4Dspbpg1DkAMJ9flx0qO0FmbzzKLe0ihyfKrpbZpg8kCEAAAhBIm4Ddt3Oy7GDZ3DpdreMmwGb+7qUv7BEIWy/PMb0hp38n+5LscRkJAq0QsIsJCQIQiIOAbYz3IdmVHuR6GgAYj9VkP5fta79kmmxWZILs6zKrLCQI9ESAAUBPdPgOAn4I2GzvYbKn/Ujyp8SWJT4ss87PLm65mu0bcLxskIwEgWYEcm0f+J3vtTG22NtN75+T9WnWiPl8eQIr66PTZQtksQU8pN5p8v+Tsr4yEgSWJRCyrpFX3tca4h82/rase7HMZrZJHRJ4q867WZZ75XxADN4j87ZsI0mkGgnk3i7wn2ujxzpgfZb1XaRABPZRPvb8vMdgV6npNjGw50ZJEDACVdY9yoI3daDnOjBFbdL2eOEPNbs6BU52f4DBfVSWe0W0Rwe3k5HyJpB7O8B/roUe6sCTugyxVFvRtbj/Itj2vmQPwa9Lg60x2YZCG8lIeRKoq+5Rbt7XHuK/MP62g9+XZdysXcP1d8VF8O2O+ZwrpD06aFsMryEj5UUg53qP73lf9+qMv+1k+32ZvdyOVDOBESrfgmG7KtVZKeoum0pZc0Wsofi66xzl533NyS3+9jZX+2NrzRraOkX2QmA9fW/BsW2Fc6uYS/rbmJYaKA6ktAksGXd+zrvdE//y4t9Ybt047ctJGt6NkRu2Np57g2jcmMIGFGnU6+68yL2O4z/XubLrgN1wvX13jY/PfBOwRwdvl5VdQbznf78Y2NMTPJoiCIkl73UPfVx/Yq0Dk3SteGdi14vs3LFOzzq/f8pirYihdN8iBm+TkdIhEKpukA/XB+rAwjrwmC4P9kifPXZOSoSAbaVrQX1KlntFtymtrWWk+AnkXpfxn+tZqDowQ5cDe6TPHjMnJUpgsPyyINsLGkJVnBjzsRsl7T6JDWSkeAnEWPfQnPe1x1v8X1Lzt6fIVor3MoDydgnYy4Ys6K/KvFXIKvU09hBYvV2AHO+CQJV1hbLyvlakFv95asH21Bgv63FxKatHxKhFlcCe70ytgrfjz8vy3wZEQ2SkeAi0E2OOzbuNE/+F8W/Mfq4fTzNHadkENlUBNiVuz3vm3FBmyn9bIhkoI/knkHNdxfe8r1WdxN/uf9rSf7NGYV0EdlTB18o6qVwpnfOEGNhNk+whIAiOU0p1Dl+47pRVB25UG97dcTtGmjMCtofAHbKyKmQs+d4rBvYYJckngVjqETq5ltRRB7h++bxuRaGqsYfAQ1JbR+X1VOZNYrBHFFHLS6SnOoIWrhNe6gAzmHldB0v1tp9yt+nw6TIvFbwuHayhlVrV2s68rnpAuVwLPNaBxj1MA9puSZwAgV4IrKDv7Qa52TKPlb8qTdxF20tFqfDrqmJOOXm3ee/x5ymmCi86uRe1igDYI3Ovybw3jDL18Rxt/S2hzPiSd97tO4b4N/YxGVl/U0RBbgTWlsO2kcQCWQyNpSyN7KRVX80vK6bkm3eb9h7/xiwkO5nWd+2h5EUENtP/toeA90ZTtr4ZYmBLJKy/CUJFqeyYkj/t2lsdsPuQeJdJRRcYimmdwE469DqZtwZTtZ7HxMBumuRtWoJQcqo6tpRH+66rDtystvS2ktsT2UOgMAHbQ+BuWV0NxUu5k8WA92kXrk49ZuAl1uigvZdVB+5XC7C9SOyxbBIEoiBgf/1apX1EVlbDiCVfm7LbXkYKTyCWOoBOrgPt1oGpai42k8hupOGvG+RYEYH+Kscq8TOydhtASsfbOxbsPomNZaRwBFKqI/iS9zWiEf9Zah52LxHvIwl3nSCnmgmsqPKtUs+RNSp6jv/Pl//25MSaMlJxAjnWIXxO8xrSeJZ/WPFmQQ4Q8ElgVcmyPQTmynK+kL2yiAONXSAKpJzrEL6ncQ1pPMu/RoF2wKkQiIrAulLLHgJdXY3pvkFRRc+PWDrBNDrBHOPYWBbc0E9zQgkEqiWwhYpjD4GurifFwe6V6Fst/uhLy7HjwOf4Bz12Y/C20bc+HIBAIAK7KJ+JstwvblPEgEd+Wq9UudcX/I/rmnGbqva41qs3R0IgLwK2h8AkWe4XtlvFYK+8Qt+Rt7nXE/yP41rxgGo3A/uOmjgn5UagsYfAY3I89wucTRVuk1sFaMPf3OsH/vu+RkxTXWZpr40GzaEQaBDorx+s8dge+zlf6LhZqFEjlv8/53qB736vC8+rqtpjz9zcu3yb5RMItEVgJR1tjelFWc4XvcbjQqu3RS/tg3OuD/ju73rQeLx3eNrNDu8gUD2BESrydJltppPzxa+xYcjQ6kPgrsSc6wG++7kO2Ot5L5axwZe7SwSCUiOwsRyyRwdtajzni+Bz8t9mRnLeMjTn+OO7j/Zv9+mMlZEgAIEKCeygsq6R5X4hnCoGdq9Eji8NyT32+F9f+79BbW43GQkCEKiRgD06+A9Z7hfD+8TgkBrjUEfRuccc/6tv9/aa79zaWR1tmzIh0DIBe1e2NcoHZblfFG8Wgz1lOaTcY43/1bX3x9WgbKbNHlMmQQACDgn0kyZrpE/Lcr842trkVrKUU+4xxv/y2/lMNSC712ZAyg0J3yCQEoHBcsYa7QuynC+Sdney3TA5WpZiyjm2+F5u235JDcbeXDokxYaDTxDIgcDKctIa8auynC+Y8+S/vX1xpCyllHNM8b2cNt1oK6ul1FDwBQI5Exgl560DzH0PgdT+qqETLKcTzJFrY7Zs/ZwvlPgOgZQJbCrn2EOgqyuVdc0cOyp8Dj/oyeF+mZSv6/gGgbYIvFVH/1WW+8X0cTGI+c7m3OOH/8Xa8E2q/3vISBCAQIYEbA+BO2W5X0hjfbY597jhf2dtN8c9MzK8vOMyBHonYM/12h4CD8tyv6DGtrtZ7vHC//ba7BNq4zbjleOumXKbBAEINCPQ2ENgug7I/cIay/7muccJ/1trq7w3o9lVj88hAIGlCKyg32wPgdmynC+wjbui1xMHrynn+OB77+2TN2d6bbnogoBzAqtIn+0h8Jos54utPRdtr2H2+I7znOOC783b5euqr/bY7+oyEgQgAIGOCayjM+1iskCW80X3eflvMyODZF5SzvHA9+XbY2PWagMvFRQdEIBAGgQ2lxu2h0DuF95pYmA3UvWV1Z1yjwX+L26Pdt/KNnVXSMqHAATSJrCz3LtelvvF9wExsKcn7E2MdaXcY4D/XV23qPLtVVcFpFwIQCBPAraHwN2y3C/Ct4nBuJqqQO7sc/Z/iupc3QPQmqo9xUIAAh4INPYQeFRicr4Ym+82BbttxUHJnXmO/j+pOuZlCari6k5xEICARwL9JcouSs/KcrwoN3x+Q/7bfRIbyqpIjXL5P/16N0sVyttNqFXUccqAAAQiITBUOk+U2fPHOXdK9hjWGbKRsrKS7eaWM+NcfLe2ZG3K2hYJAhCAgHsCa0jhmTLrCHO5UHfnp71++NuyIbLQaU1l2F2ZfJYGF2s71oasLZEgAAEIREdgIyn+pcymxnPumOz1w0fLBshCpfcqo5yZpuq7tRVrM9Z2SBCAAASiJzBGHrCHQFfXVHGweyVCvIzlr8on1U4wV7/sRtLtZCQIQAACyRHYWx7ZY3O5XuAbftvrhw8qEF3j2MiL/+NnYW3CYkqCAAQgkDQB2zjHpq//Kcu987pBDHaTtZNG62BbUsidXQr+WxuwtlDnZlIqngQBCECgWgK2h8CHZU/JUriYF/HBpn63lvWWxukAXtccf32ZoTh+TuZhO+ne6hzfQwACECiNwGDlfJzsBVmRTjT2c+1FLr+S2Q6LS75waJh+P0B2mcyOid3PnPVbHbe6bnWeBAEIQAACiwisrP9Pkb0qy7mTaPhuncUzsEiiLlidtrptdZwEAQhAAAJNCKylz8+RzZc1OkP+h0WMdaDxet71VJdJEIAABCDQIoFNdNyvZbnvIRBjx4fmhe+G2LLFus5hEIAABCDQDYEd9Nm1MjoVGMRQB25UXd29m3rMRxCAAAQg0CEBuznuDlkMnQAa84vTvaqb9npeEgQgAAEIlEDAnpe2i+xDMjpZGHioA4+rLoba3VFZkSAAAQhAoCcC/fSlXXSflnnoBNCQXxxsMyZ7PW/I9zsoOxIEIAABCLRCYAUdZBfh3PcQYABS3QDE3vD4fVkZb3hUtiQIQAACEGiHgD1fbRfl12R0hjAoow7MU92yx1NHykgQgAAEIOCMwNrSYxfpBbIyOgHyzI9r41l+ewcDCQIQkiZkYQAABI5JREFUgAAEnBPYTPrYQyC/zjr0AK3VdzQ4bw7IgwAEIJAfgZ3k8t9koTsG8kub6c2qM3vm11zwGAIQgEB6BGwPgbtkdNww6KkO3K86wrP86bV/PIIABDInYK8ftov7w7KeOgG+y4/PVNUJnuUXBBIEIACBlAk09hDgTXv5dfTLDu6eU0W3x0gHplzh8Q0CEIAABJYm0NhDYI4+XrZj4Pe0mbysmNtjo0OXrhL8BgEIQAACORFYVc5aZzBXRsefNoPXFWN7THR1GQkCEIAABCDwJoF19C97CKQ5ALBXSttjoRu+GWn+gQAEIAABCHRDYAt9Zp0FswFpMLBn+bftJs58BAEIQAACEOiWwC76dKKMgUCcDG5V7MZ1G1k+hAAEIAABCLRAwPYQuEfGQCAOBlMUK3vc014dTYIABCAAAQgUItDYQ+BR5cJAwCeDJxUbe5a/b6FIczIEIAABCECgGwL99Zl1Ms/KGAj4YDBLsbBn+QfJSBCAAAQgAIFSCayo3K3TeVHGQKAeBq+IvT2+OUxGggAEIAABCFRKYIRKs05onoyBQDUM5ou1Pa65powEAQhAAAIQqJXAeirdOiV7dzwDgXIYNJ7l31iMSRCAAAQgAAFXBMZKzZ9kDALCMrBn+bd3FWnEQAACEIAABLohYI8O3i5jIFCMwWQxtEf6SBCAAAQgAIFoCNhz6NZ5/VPGQKA9Bo+JmT1tYY9fkiAAAQhAAAJRErDn0q0ze0rGQKBnBjPEyJ6uGCAjQQACEIAABJIgMFheWOf2goyBwNIMXhITe5piJRkJAhCAAAQgkCSBleWVdXavynIfCNjjk/b0xGoyEgQgAAEIQCALAqPkpXV+9lx7bgMBe1zS3ri4vowEAQhAAAIQyJLApvLaOkN7zj2HgYA90reljAQBCEAAAhCAgAjsKPurLNVBwE3ybQ8ZCQIQgAAEIACBbgjYHgJ3yFIZCNwrX3iWv5tA8xEEIAABCEBgWQKNPQQe0hexDgSekHZ7/LHPss7xOwQgAAEIQAACPRPor68/LbN33ccyEJi6SLNpJ0EAAhCAAAQgUICAbYxzpOxhmdeBgM1WHCGj4xcEEgQgAAEIQCAkAdsa9wDZZbIFsroHA/YIo738aD8Z2/YKAgkCEIAABCBQNoGRKuAzshtkVQ4GrKy/y46SsYGPIJAgECMBu9GIBAEIxE9gFbmw7yLbSf/b3gKh/iK3/QkekN0iu0pmz/E/LyNBAAIRE2AAEHHwkA6BHggM0XfbyjZZZBvo/xGyNWX23Qqyxlr96/r5Fdkc2XTZTNkjMnuLoXX8d8lelJEgAAEIQAACEIAABCAAAQhAAAIQgAAEIAABCEAAAhCAAAQgAAEIQAACEIAABCAAAQhAAAIQgAAEIAABCEAAAhCAAAQgAAEIQAACEIAABCAAAQhAAAIQgAAEIAABCEAAAhCAAAQgAAEIQAACEIAABCAAAQhAAAIQgAAEIAABCEAAAhCAAAQgAAEIQAACEIAABCAAAQhAAAIQgAAEIAABCEAAAhCAAAQgAAEIQAACEIAABCCQNIH/D+hcyJcCxGiFAAAAAElFTkSuQmCC;" vertex="1" parent="1">
          <mxGeometry x="299" y="178" width="82" height="82" as="geometry" />
        </mxCell>
        <mxCell id="i6gb_gYeYcdbdpnZbGSR-94" value="" style="shape=image;verticalLabelPosition=bottom;labelBackgroundColor=default;verticalAlign=top;aspect=fixed;imageAspect=0;image=data:image/png,iVBORw0KGgoAAAANSUhEUgAAAgAAAAIACAYAAAD0eNT6AAAAAXNSR0IArs4c6QAAAERlWElmTU0AKgAAAAgAAYdpAAQAAAABAAAAGgAAAAAAA6ABAAMAAAABAAEAAKACAAQAAAABAAACAKADAAQAAAABAAACAAAAAAAL+LWFAABAAElEQVR4Ae2dB7wlRZm+B2HIOcdhBiSpRBEkKEERMGBCUCQoq7CgAqv/XXTFFSPoGhZBFFBQFBFUBCQJKAgCCkjOaYacGTIMYfi/73AOc+bec+89fU6HCk/9fu/tPh2qvu+pvt1fV1dXzzYun7SYXH2DNFGa1JouoeniktdZs0nzSnNJJAhAAAIQSIfANLnyrPSK9GhLj2j6sDRZmtKa3qip1yeffMFLMflivlFLb9Z0TWlZiQQBCEAAAhAYi8C92uBa6QrpYukS6TEpqZRKADC3amUzaVvpXdLqUiq+yRUSBCAAAQg0SMCtBm4Z+LN0lnSB9LwUdYr5IjmfyL9X2kHaRnLTPQkCEIAABCBQNQE/SjhTOlE6TfLv6FJsAYDt3Vz6lPQBiYu+IJAgAAEIQKAxAs+o5JOloyS3DLi1IIoUSwCwkGj6or+ntEoUZDESAhCAAARyI3CLHD5C+pn0ZOjOhx4ATBDAfSVf/BcMHSb2QQACEIAABETAF/8jpUOke6QgU6gBwJKi9XnJF3938CNBAAIQgAAEYiPwogw+Rvq65DcLgkqhBQCLiM4B0t4SF/6gDhWMgQAEIACBPgk8p/1+LH1LerzPPErfbfbSc+wvw9dpt12kU6V3SnNIJAhAAAIQgEAKBMbLiY2lPSQPSHS51HhnwRBaANYXCHeYWFsiQQACEIAABFIncKUcdN82DzTUWGqyBcCv8B0k+eK/TGMEKBgCEIAABCBQLwFf8/5Nml+6SHpJqj011QLgoXmPkzwlQQACEIAABHIlcJMc/7hUe2tA3S0Afta/v3S8xNj8gkCCAAQgAIGsCfiDdJ+UPLSwvzlQW6qzBcDv8f9S8gh+JAhAAAIQgAAEZiVwun66Q/zUWRdX86uuAMAd/E6SVqrGDXKFAAQgAAEIJEHgVnnxIem6qr1xk3zVaWsVcKHExb9q0uQPAQhAAAKxE1hFDvhRgD92V2mqug+A33l0Z795KvWCzCEAAQhAAALpEJhTruwoPSpdVpVbVQYA35bR35HqaGWoig/5QgACEIAABJog4GvnuyVfp8+rwoAqAgD3K/iB9J9VGEyeEIAABCAAgYwIbCZfl5DOLNvnsgMAX/x/In22bEPJDwIQgAAEIJApgQ3ktz+Sd0aZ/pcdAPyvjNunTAPJCwIQgAAEIACBcW8RA38w76yyWJQZAPiZvwf5IUEAAhCAAAQgUD6BDZWl+wacX0bWZQUAe8gYd/gjQQACEIAABCBQHQH3CXhEGvjtgDIGAnIvxVMkPuErCCQIQAACEIBAxQReVv4flP40SDmDBgAe4c9fMppvECPYFwIQgAAEIACBQgSe0tYbS32PGDhIAODOCG6CWFkiQQACEIAABCBQLwEPG+w3BB7vp9h+B+nxfr+WuPj3Q519IAABCEAAAoMT8LDBx0p9Xcv77QTo3v57DW47OUAAAhCAAAQgMACB1bTvk1LhTwn38whgvVZBcw5gMLtCAAIQgAAEIFAOgWnK5q3SVUWyKxoAzKvM/yWtXqQQtoUABCAAAQhAoFICNyj39aXnei2l6COAg5Txdr1mznYQgAAEIAABCNRCwN8LcF+Av/RaWpEWgHWUqXv9875/r3TZDgIQgAAEIFAfgZdUlEcLvKKXInsNAHzRv1zye/8kCEAAAhCAAATCJOBrtYOA6WOZ1+urA3sqIy7+Y9FkPQQgAAEIQKBZAu4HsHsvJvTSAuABf26RFu8lQ7aBAAQgAAEIQKBRAg+p9FWlJ0azopdOgN9SBu8YLRPWQQACEIAABCAQDAEPz+8W/nNHs2isFoBltPPt0jyjZcI6CEAAAhCAAASCIvC8rHm9dO9IVo3VAvBd7bjRSDuzHAIQgAAEIACBIAm487511kjWjdYCMEE7+UMDjPg3Ej2WQwACEIAABMIl4BECV5a6tgKM9hbAftqJi3+4FYtlEIAABCAAgdEIzKWV+4y0wUgtAAtqh7ukhUbakeUQgAAEIAABCARPwB8Kcov+sDcCRmoB+LQ25uIffL1iIAQgAAEIQGBUAr6h373bFt1aALzsJsnvEJIgAAEIQAACEIibwM0yfw3plU43urUAbK4NuPh3UmIeAhCAAAQgEC+B1WT6pkPN7xYAuPmfBAEIQAACEIBAOgSGXduHPgKYV756CEGPIkSCAAQgAAEIQCANAs/IjaUkT2ekoS0A22kpF/8WHCYQgAAEIACBRAj42r5tpy9DA4AdOlcyDwEIQAACEIBAMgRmucZ3PgKYWy4+KvkxAAkCEIAABCAAgbQIPC13/GVfjxA442tBnjptJnHxn4GCPxCAAAQgAIHkCMwvj157G6DzEcAszwaScxuHIAABCEAAAhDYuo2gMwDYqr2QKQQgAAEIQAACSRJ4LQBo9wFYTG4+LLV/J+k1TkEAAhCAAAQyJzBd/rsfwNR2C8DG+sHFP/OjAvchAAEIQCB5Ar7uv9VetgOAjZJ3GQchAAEIQAACEDCBTfynHQCs5x8kCEAAAhCAAASSJ7CuPWwHAGsl7y4OQgACEIAABCBgAmv6j5/7uzOAOwCSIAABCEAAAhDIg8BibgHwN4JJEIAABCAAAQjkQ2A1BwCT8vEXTyEAAQhAAAIQEIGJDgAmggICEIAABCAAgawITHIAsGJWLuMsBCAAAQhAAAIzAoCl4AABCEAAAhCAQFYElnQLgN8CIEEAAhCAAAQgkA+BxQkA8qlsPIUABCAAAQi0CcwIABZs/2IKAQhAAAIQgEAWBBZ2C8BcWbiKkxCAAAQgAAEItAnMSQDQRsEUAhCAAAQgkA+BuTwU8MuSAwESBCAAAQhAAAJ5EJjuAOCVPHzFSwhAAAIQgAAE2gS482+TYAoBCEAAAhDIiAABQEaVjasQgAAEIACBNgECgDYJphCAAAQgAIGMCBAAZFTZuAoBCEAAAhBoEyAAaJNgCgEIQAACEMiIAAFARpWNqxCAAAQgAIE2AQKANgmmEIAABCAAgYwIEABkVNm4CgEIQAACEGgTIABok2AKAQhAAAIQyIgAAUBGlY2rEIAABCAAgTYBAoA2CaYQgAAEIACBjAgQAGRU2bgKAQhAAAIQaBMgAGiTYAoBCEAAAhDIiAABQEaVjasQgAAEIACBNgECgDYJphCAAAQgAIGMCBAAZFTZuAoBCEAAAhBoEyAAaJNgCgEIQAACEMiIAAFARpWNqxCAAAQgAIE2AQKANgmmEIAABCAAgYwIEABkVNm4CgEIQAACEGgTIABok2AKAQhAAAIQyIgAAUBGlY2rEIAABCAAgTYBAoA2CaYQgAAEIACBjAgQAGRU2bgKAQhAAAIQaBMgAGiTYAoBCEAAAhDIiAABQEaVjasQgAAEIACBNgECgDYJphCAAAQgAIGMCBAAZFTZuAoBCEAAAhBoEyAAaJNgCgEIQAACEMiIAAFARpWNqxCAAAQgAIE2AQKANgmmEIAABCAAgYwIzJGRr7gKgVwJPCfHn285/5SmL7Xmp7ami7SmPh8s0JqfW9N5WvNMIACBBAkQACRYqbiUNIGX5d290p3SFOlh6dGWHumYby+bpmWDpLm082JDtHjH7yU0P7GlZTWdXSJBAAIREJhNNr4SgZ2YCIGcCPiifUNLt2k6RWpf8O/R/ItSiGm8jFpBWlGa2Jq+XtM3Sm+Q5pRIEIBAIAQIAAKpCMzIlsD98vxf0vWSL/qeXicNeueuLIJKbm2cIDkYeLPkgMDzq0v0RRIEEgTqJkAAUDdxysuZwNNy/mrp79JFLT2mac7JfQ7WljaRNm1N230S9JMEAQhURYAAoCqy5AuBV5vtzxeIS6SLJd/dT5dIIxNwH4I3SQ4INpI2l5aXSBCAQMkECABKBkp2WRNwb3vf2Z/b0hWa0sdGEAZMK2n/d0rva039hgIJAhAYkAABwIAA2T17An5uf5b0Z+kCqf26nWZJFRCYV3luJm3T0qoVlEGWEMiCAAFAFtWMkyUT8EX/d9IJ0o0l5012xQi4I+FHWnLHQhIEINAjAQKAHkGxWfYEuOiHfwi0g4H3ylS/aUCCAARGIUAAMAocVmVP4C4ROEY6Tro1expxAXBrwM7SbpIHKCJBAAJDCBAADAHCz+wJvCACZ0vHSn+UXpJI8RJ4nUzfUtpD+oDkwYpIEICACBAAcBhA4FUCN2nyC8l3/A9JpPQILC2XdpT+TVozPffwCALFCBAAFOPF1mkR8Lj6J0v/J3lwHlIeBHze21zaT3J/AbcSkCCQHQECgOyqHIdFwF/EO176gXSzRMqXwMpyfR/JrQLz5YsBz3MkQACQY63n6/MUuf5T6Uip/SlczZIgMG5BMfik9AXJHzQiQSB5AgQAyVcxDoqAh+D9hvR7yc3+JAiMRMCdBHeSviytMtJGLIdACgQIAFKoRXwYiYDf3f+OdJzEhX8kSizvRsD9Aj4sfVNitMFuhFgWPQECgOirEAe6EPDofAdLXPi7wGFRIQLtQOBb2osWgULo2Dh0AgQAodcQ9hUh4A59X5M8RC9f3StCjm3HIjBeG+wqfUVacayNWQ+BGAgQAMRQS9g4FoHHtMF3Jb/ON22sjVkPgQEIzKl995IcaC40QD7sCoHGCRAANF4FGDAAgRe1rwfuOUB6eIB82BUCRQksph3+R9pbmqPozmwPgRAIEACEUAvY0A+Bc7XTvpI7+pEg0BSB1VXw96T3NGUA5UKgXwIEAP2SY7+mCFyrgj8n/a0pAygXAl0IOADwI6jXd1nHIggESYAhMIOsFozqQuA5LfuatL7Exb8LIBY1SuB0le7vC/gY9QelSBAInsBssvCV4K3EwNwJ+IK/p8SwvbkfCXH4/yaZ6dEmN4rDXKzMlQAtALnWfBx+u3e/L/xbSFz846gzrBw37jpB2ETaTfIxTIJAkARoAQiyWjBKBI6VPi89Cg0IRExgWdn+Y+kDEfuA6YkSIABItGIjdutx2e5Xq/y1PhIEUiHwETlyhLRIKg7hR/wECADir8OUPDhbzuwu3ZuSU/gCgRYBjyD4S2kziEAgBAL0AQihFrDBPfz3k7aRuPhzPKRK4E45toXkY503BVKt5Yj8ogUgospK1NTL5NcuEp38Eq1g3OpKwG8K/Fpau+taFkKgBgK0ANQAmSK6EvDrpz+U3Fuai39XRCxMmIDfFNhI+kXCPuJa4ARoAQi8ghI17yn59WnJX+0jQSB3Av7K4E+keXMHgf/1EiAAqJc3pY0bd5MgbC9dDwwIQOA1Autq7vfSSq8tYQYCFRPgEUDFgMl+FgK/0S8P5cvFfxYs/IDAuCvFwEHAH2EBgboIEADURTrvcvzZ3s9KH5eeyRsF3kNgRAJPas2HJX9mePqIW7ECAiUR4BFASSDJZkQCft7/UemMEbdgBQQgMJTAB7XAbwnQL2AoGX6XRoAAoDSUZNSFwGQte690Q5d1LIIABEYnsI5W/0lafvTNWAuB/gjwCKA/buw1NoF/aJO3Slz8x2bFFhDoRuAqLfT/0BXdVrIMAoMSIAAYlCD7dyPwOy3cUnqo20qWQQACPRPwyJgeOtgtASQIlEqAAKBUnGQmAl+XdpQ8vC8JAhAYnMDTysJ9An48eFbkAIGZBOgDMJMFc4MR8Mh+X5A8uh8JAhCohsD+yvbgarIm19wIEADkVuPV+Puyst1DOrqa7MkVAhDoIPAZzf9IogW3AwqzxQkQABRnxh6zEvBXzfx+v0cxI0EAAvUQ2FnFHCPNUU9xlJIiAQKAFGu1Pp88qM+HpLPrK5KSIACBFoHtNPX3NOaGCAT6IUAA0A819jGBx6V3S5f4BwkCEGiEwLtU6knSfI2UTqFREyAAiLr6GjPeQ5ZuJV3amAUUDAEItAm8TTNnSgQBbSJMeyJAJ5KeMLFRB4FnNf8+iYt/BxRmIdAggQtVtl8TfL5BGyg6QgIEABFWWoMm+91+D+17QYM2UDQEIDCcwDla5CBg2vBVLIFAdwIEAN25sHQ4Aff23146b/gqlkAAAgEQOEs27CS9FIAtmBABAQKACCopABPbF3++6BdAZWACBEYh4A6BDgI8NgcJAqMSIAAYFQ8rRcDfJfd7/oxFzuEAgTgI+Fsce8dhKlY2SYAAoEn6cZT9eZnJID9x1BVWQqBN4EjNfKP9gykEuhHgNcBuVFjWJvA9zfxn+wdTCEAgKgI+v/9c+mRUVmNsbQQIAGpDHV1BJ8rij0l+BECCAATiJDBeZvvx3dZxmo/VVRIgAKiSbrx5XyDTfcLgveJ46xDLIdAmsIBm/iat217AFAImQADAcTCUwA1asKk0degKfkMAAtESWFaWe9juCdF6gOGlEyAAKB1p1Bn6ov8W6faovcB4CECgG4G1tPBiiSGDu9HJcBlvAWRY6SO43H7dj4v/CIBYDIHICVwj+3eVXoncD8wviQABQEkgE8jmi/LBHxQhQQAC6RLwQEHfT9c9PCtCgEcARWilu61PCh7mlzuDdOsYzyDQJuAbv9OkbdsLmOZJgAAgz3rv9NrNghtLz3QuZB4CEEiawKLyzl/0XDlpL3FuVAI8AhgVT/IrH5OH/oIYF//kqxoHITALAf/vu9XPn/cmZUqAACDTim+5vbumd+SNAO8hkC2Bq+T5vtl6j+OMA5DxMXC4fP9MZP57VLOtpJWkpSS/ueA7GPddeEC6W7pFulciQaBMAj72VpMmShMkD67jtKD0lORj7h/SrVJsyaN+fiQ2o7F3cAL0ARicYYw5XCejN5Cei8z4D8veXj5M5OZN391c1KGnNU+CQK8EJmnDt0keFMv/K2tIc0qjpWu1cq3RNgh03cKyy/8vKwZqH2ZVSMB3TygfBr5jflOFx1OVWZ/S57E6TfudLe0j+cROgsBQArNrwdul70o3Sf2eE9fRvjGmTWT0i1K/frNfnOyo8MwO+r1jPDvJ5iWlF0qqq+uVz/6SHyOQ8ibwRrl/oDRZKuMi5i9oxpq+KsPLYEAe8XCkwjM66E+Wr37sE2NyZ6WyTywOKP4obSXFykWmkwoSmF/b7yX5Fdiyj6n7lKdbE2JMtvsCqWwm5BcuUyo7kwP+Yfm5hBRrqvrEdLPA/Ie0UKyAsHtMAu7E9yPpCanKi5L7DcSaJspwd2qskg95h8OXis7kYP+o/Iw1LSbD63o+6ZPfIdJyscLC7mEE1taSY6WXpDouPgcPsyCuBZ+tiVMddUEZox/ztfxDUAmjV0LVfE6N6/wzzNpdGjgh+Q2Jn0h+5ZAUJ4HNZPafpar/v4bm77dsYk6vk/EXSkP94nd6TKjkxA/0qfIv9rtZv6fc1MnH/QQcCCwrkeIgsL7MPEdq6phxubG/beLHJQ6Cm2RI2dXzp4ITP8h3l38xJ3fOe1Bq+mTg4ZL9aMBvI5DCJDBRZh0hvSw1fbx8QjbEnvaXA01zpPxq64AKTvgg911Q7L3bPQBLSCcBt6j8lzTWoDDahFQTAfcROVwq6zXRMo63n9Xke5XFzKHML5PK4EEeAXL0xcEVQ0qPgJvv/I7z5Mhd20P2+64utHSrDPJbA6eHZljLnkU0na8lv/bm0d78/z63NI/ULbmVwxdR30E/2ZKXWU9IoSW/tran9A1p0cCM81slqwdmUz/muAPl5ZKDAVJiBKjUxCq0wx2PaBb7xd/ubNThU0izq8iY06QzJAcCt0hVJ1/wlpFWlDwe/QrS8pL7JywhLd4hd+QqM7kH/SMd8mOZB6Q7pbtbuqu1rI6bireprEMlX6BCTKvKKLdMPBqicQVsulrb/lTymwGkxAjQApBYhbbc8Un5DdKzCbh3hXxYN3A/fNf8Q+lrklteBk0LKQOPKe87SAcavphYK0tzSiEn++/WEQdEnlrXS+4ZX8bx6EDHrHeSfP4KOW0p484L2cAebXPrils0HGCSEiJAAJBQZXa4soPmf9fxO9ZZt1D5vXw3W8eQbpeRe0h/LWDs0tp2Q8lBju9mrUlSasmPFW6TfEdpObD7pzRV6jXtrA198Y/lQrSvbP1Rr84Fvt2/y76fBG4j5vVBwM11KB0GKdxxtA/j0DoA9vJ/Ml3GHy11eybtJvy3SPtJx0uTpV7yTHUbs/KHd34h7SWtKXW7q5+g5X7UEhuHo2RzKsnH7pVSbHWAvaPUGS0Aqfx7vuqHn9OuJ12biFvvkx+nRuqLn5H7DtB3vZu39HZNF5RIIxNwP4O/SedL50mbSwdJC0ixpfNl8BaxGT2Kve534brxdYOUAAFXpCMkUhoE3ClqnzRcmeHF5/Q3lSbUhKoFV3okcIe2c7+NlNJv5MzHUnIoZ19el7PzifnuZ+VfT8ynFRPzB3fyIrCC3E3tHPsl+TQtr2pM19vUDs50a2psz9w5ys2nKaXlUnIGX7IjMF4e+62FlNKdcubIlBzK2RcCgDRqf6rccACQWlokNYfwJzsCKR7D31YtPpNdTSboMAFAGpV6sNx4PA1XZvHCo9eRIBAzgRSP4QdUIYfFXCnY/ioBAoD4j4T75UKq/4z0mI//+Mzdg1SPYY80+kTulRu7/wQAsdfguHHfkgtljLAWIgmGqg6xVrCpCIFUj+HHBOEHRUCwbXgECADCq5MiFk3RxikNNjLUd943HkqE37ER8AA6qSb3O3o4Vedy8IsAIO5a/r7M9zj0JAhAIEwCKQexfvWYcTrCPO56sooAoCdMQW7kJrhjgrSsPKPK+LBOedaQEwSKE0j9GD5cSJ4ujoU9QiBAABBCLfRng0f9S/1VnNT966/m2SsmAqn2z2nXgW9Eft7+wTQuAgQAcdVX21qfVH7c/pHw1OMbkCAQM4Ecesq7L4C/Q0KKjAABQGQV1jLXTf85dL65J87qwWoIvEbgrtfm0p3x6IAnpOteup4RAMRXt/6u+v/FZ3ZfFt/d117sBIEwCLiT3JNhmFK5FR4XgA/LVY653AIIAMrlWUduJ6kQf2I2h5TD3VMO9ZirjzkFsNeoks/JtaJj9ZsAIL6ay+HZf7tWCADaJJjGSCC34zenc1OMx+MwmwkAhiEJesHNsu6CoC0s17hcWjrKpUZuoRC4PRRDarLjdJVDv52aYJdRDAFAGRTry+MIFZXTczY3ofpbByQIxEjg8hiNHsBm9086eoD92bVmAgQANQMfoLhp2vfXA+wf666XxWo4dmdPILcAwBXuockdCJAiIEAAEEEltUz8vaY5vPo3tEYuHbqA3xCIgIDH6rgpAjvLNtGPAM4sO1Pyq4YAAUA1XKvI1c3/OaaLcnQan6Mn4MA118Fxjoy+9jJxgAAgjoq+UWZeGIeppVvpACCH0dRKB0eGjRI4q9HSmy38DBWf0yuQzdIeoHQCgAHg1bjrsTWWFVpRL8qgnE+modUH9vRGwBfBXJP7AByXq/Mx+U0AEH5tudf/ieGbWamFp1SaO5lDoFwCU5TdteVmGV1uv43O4gwNJgAIv9L/KRPvCN/MSi08Wbk/XmkJZA6B8ghw9ztu3NXCeUN5SMmpCgIEAFVQLTdPPrIxbtzzQup+ECQIxEDguhiMrMHG3Fsua0A8WBGzafecBpYZjFb9e09XkROke+svOqgSvylrvhyURRgDgZEJPKZVG0m3jLxJFmtWk5c5vgoZTeXSAhB2VV0g83K/+H9CDLj4h32cYt2sBBbVT78Lv8Ssi7P7dbM8vjI7ryNymAAg7MrKvSPNZqqen4ZdRVgHga4EVtLSP0hzdV2bz8Lcz2FB1zSPAMKtHjf/Lys9GK6JlVq2hnK/WFq40lLIHALVEviVst+12iKCzt2BUG4fRQq6QjqNowWgk0ZY8x5HPNeLv++a3PmRi39YxyTWFCewi3b5dPHdktnjDnlCP4BAq5MAINCKkVk5j6f9Xfm/ZrhVg2UQKETgh9p61UJ7pLVxzoMiBV2TBADhVk+u/zRbqUo+F261YBkEChOYT3scJ40vvGcaO+R8MxN0DdIHIMzq8Vf/lpbcDyCntIic9QAiK+TkNL5mQ+BAefq1bLyd6eicmn1EWmDmIuZCIEALQAi1MNyGs7Qot4u/KfiLh1z8TYKUIoED5NT6KTo2hk8vaP1fx9iG1Q0QIABoAHoPRebY/L+luHykBzZsAoFYCcwhww+T3PKaW+IxQIA1ziOA8CrFd/4eQMSjieWSZpejV0hr5eIwfmZNYCd5f3xmBNyyd1dmPgfvLi0A4VXRNTIpp4u/a+BTEhd/kyDlQMBvucybg6MdPt6t+Ts6fjMbAAECgAAqYYgJfx/yO/Wf7hh0YOpO4h8EOggsr/n9On7nMpvbuS34eiUACK+KPPpdTum/5azfeCBBICcCX5SzS+XksHwlAAiswgkAAquQzP5JFpS/e4VXBVgEgcoJuOXrM5WXElYBBABh1cc4AoCwKuROmeNnZbmkPeToQrk4i58QGELAAYAHCcol3SRHPcYJKRACBACBVETLjJwi5DnkMyP+hXX8YU29BPzZ4J3rLbLR0l5R6bk94mwU+FiFEwCMRaje9RfVW1yjpfmd/wmNWkDhEGiewOdlQk7n4Zxucpo/usawIKcDbwwUQaz+ZxBW1GNEjr2g6yFLKTERWFXGbhuTwQPaesmA+7N7iQQIAEqEOWBWL2n/6wfMI5bd15ShG8RiLHZCoGIC/1Zx/iFl73FOPNgZKQACBAABVELLBHeQmRaOOZVawpC/leIl88gIuAXAb8TkkJ6Sk5NzcDQGHwkAwqklfwUvl7R9Lo7iJwR6IDC3tnlPD9ulsolbAUgBECAACKASWibk8k+xjvxdIxzsWAKBIAjk1CqWy7kuiANrNCMIAEajU++6XFoAcjrR1XsEUVrMBHJ6DJDLuS7445EAIJwqyiUq/kA4yLEEAsEQ8GOAdwVjTbWG5HKuq5ZiCbkTAJQAsYQsPDrW/SXkE3oWi8tAmv9DryXsa4rA25squOZy/VVAdwYkNUyAAKDhCmgVf3MYZlRuxSYqYbbKS6EACMRJwP8fOSSPCJjLOS/o+iQACKN6cnktJpcTXBhHFVbERmBtGeyPBOWQcjnnBV2XBABhVE8u/wybhoEbKyAQJIHZZdWGQVpWvlG5nPPKJ1dijgQAJcIcIKsc/hnmEp/1BmDErhDIgUAurWQ5nPOCP14JAMKoohz+Gdz5z0EACQIQGJmAx8nIIbkjIKlhAgQADVdAq/gcAoCVwkCNFRAImsCkoK0rz7gp5WVFTv0SIADol1x5+72orO4tL7tgcyIACLZqMCwgArn8n9wp5nwUqOEDjwCg4QpQ8XdJLzdvRuUWTKy8BAqAQPwE/BaAx8tIPfnDZznc+ARdjwQAzVdPDgMAmXIudzbNH1FYEDuBXB4D3Bd7RcVuPwFA8zX4aPMm1GJBLie1WmBSSNIEcgmWczn3BXuwEgA0XzUeBjiHtEgOTuIjBEogkMv/yiMlsCKLAQgQAAwAr6Rdc/kn8MdOSBCAwNgE5hl7kyS2yOXcF2xlEQA0XzW5NIPlclJr/ojCgtgJ5BIs53LuC/Z4JABovmpyiIJ9nM3ZPGosgEAUBHIJlnM49wV9wBEANF89OUTBuZzQmj+asCAFArm0ABAANHy0EgA0XAEqPocAgCGAmz/OsCAeArkEzDmc+4I+6ggAmq+eZ5o3oXILGPGrcsQUkBCBXP5fnkqozqJ0hQCg+WrziFipJw93TIIABHoj8EJvm0W/VS5+BltRBADNV00O/wQEAM0fZ1gQD4Fc/l9yuPkJ+qgjAGi+eggAmq8DLIBASAQIAEKqjYRtIQBovnJziIJfEeYcPnjU/NGEBSkQyCUAyOHmJ+jjkQCg+erJ5Z/g2eZRYwEEoiDwfBRWDm5kDjc/g1OqMAcCgArh9ph1Lv8ET/TIg80gkDuBxzMBkMu5L9jqJABovmpyae7L5aTW/BGFBbETyCVYzqX1M9jjkQAg2KpJzrBcTmrJVRwO1U4gl/+VXMY7qP0A6rVAAoBeSVW33RzVZR1UzrQABFUdGBMwgakB21amaXwfpEyafeRFANAHtJJ3yeWf4LGSuZEdBFIlkEuwPD7VCozFLwKA5msqlxaA+5tHjQUQiILAfVFYObiRudz8DE6qohwIACoCWyDbXKLgewswYVMI5ErAd/85fB/E9ZvLuS/YY5kAoPmqySUKzuWupvkjCgtiJpBToJzLuS/Y45EAoPmqyeXb3zmd2Jo/qrAgVgI5/Z8QADR8lBIANFwBKn6h5k2oxYK7aymFQiAQN4F74ja/kPW5nPsKQalzYwKAOml3L2vh7ouTW+o7m6eT8wqHIFAugVvKzS7o3BYJ2roMjCMAaL6ScwkA/EGgW5vHjQUQCJrAzUFbV65xuZz7yqVWYm4EACXC7DOrnP4Jcjq59Xk4sFvmBHL6H8np3BfkYU0A0Hy15PQcLKeTW/NHFhbERsCfzL4jNqMHsJcAYAB4ZexKAFAGxcHyyOmf4NrBULE3BJIm4Edk05L2cFbnFpz1J7/qJkAAUDfx4eUtNXxRsksuT9YzHIPA4AQuGzyLqHJYOiprEzSWAKD5Sl22eRNqs+BOlfRwbaVREATiIpBbgJzTuS/II5EAoPlqWa55E2q14F+1lkZhEIiHQG4BQG7nvuCORAKA5qsktyg4t2bO5o8wLIiBwEsy8qoYDC3RxmVKzIus+iBAANAHtJJ3WUL5jS85z5Cz+1vIxmEbBBoi4MD42YbKbqJYn/N87iM1SIAAoEH4raJdBzl1hrlI/j7fPHYsgEBQBP4alDXVG+OWT64/1XMetQQqYFQ8ta1csbaSmi/IF/9LmjcDCyAQFIHzgrKmemNWqL4IShiLAAHAWITqWb9KPcUEU0pudzvBgMeQIAk4KL44SMuqMyq3c151JAfImQBgAHgl7vr6EvOKIavTYjASGyFQEwEHxM/VVFYoxRAABFATBAABVIJMyO2fwb2dcxryNIyjDCtCJfDHUA2r0K7cznkVouw/awKA/tmVuWeO/wwnlwmQvCAQKYHpsjvHFrEcz3nBHaIEAGFUif8ZZgvDlNqsyPGupza4FBQNgYtk6QPRWFuOoT7X5fbYsxxyJedCAFAy0D6zm0/7Ld/nvrHu5k5Pk2M1HrshUBKB35SUT0zZeARAn/NIDRMgAGi4AjqKX7tjPodZN30em4Oj+AiBEQi49/8JI6xLefE6KTsXk28EAOHUVm4BgMkfIzkQIEEgRwJ+DDY1Q8fXzdDnIF0mAAinWnKMiv11wL+GUwVYAoFaCTgAzjGtlaPTIfpMABBOreTYAmD6h4RTBVgCgdoI3KSSzq2ttLAKogUgkPogAAikImSGe8UuGI45tVlyukq6sbbSKAgCYRD4X5nxShim1GqFz3Er1VoihY1IgABgRDS1r/CrMWvWXmrzBfokSCtA8/WABfUR8Gt/x9VXXFAluaUzt1eeg6qATmMIADppND+/UfMmNGLBsSr1vkZKplAI1E/AAe+0+osNosS3BmEFRswgQAAQ1oGwSVjm1GaNx0H/Zm2lURAEmiPgu/9Dmyu+8ZI3bdwCDHiNgJticnwO9RqAwGYekT1LZlon4+W3+wKsLJEgkCqBz8mxw1J1bgy/fL15UFpijO1YXRMBWgBqAt1jMYtru1yHyHxRvn+lR05sBoEYCUyW0UfGaHhJNnvIcy7+JcEsIxsCgDIolptHro8BTPG30nnl4iQ3CARDYF9Z8kIw1tRvSM7ntvpp91AiAUAPkGreJOd/Ej+O2kdyawAJAikR+JOcsXJOG+fsfIi+EwCEVyvvCM+kWi26TqXxWmCtyCmsYgLPKn8Htrmn3M9twdU/AUBwVTJukkzKtR9AuzYO0IwDARIEUiDwX3JiSgqODODDqtrX5zZSQAQIAAKqjA5TtuqYz3HW70jvKuX8vDTHek/RZw/3e3iKjhX06V0Ft2fzGggQANQAuY8i+GcZN+5Kcft6H+zYBQKhEHhMhnxC4lXrceNyv6kJ5ZicxQ7GAZgFRzA/npQlfiUw985wDlBPld4jkSAQEwF/5vq90pkxGV2RrXMo30clfweAFBABWgACqowOU/yPskHH71xnfRLdRbo9VwD4HS0Bj2nBxf/V6nPvfy7+AR7KBAABVkrLpPeHa1qtlk1VaR+U3CpCgkAMBH4nIw+KwdCabNyupnIopiABHgEUBFbj5repLI+cRXqVwOaanCXN9epP/kIgSAIXyKqtpeeDtK4Zo9yCt1IzRVPqaARoARiNTrPr/Crgm5o1IajSz5c1n5ToUBVUtWBMBwG/uuqWOy7+M6GsrVku/jN5BDVHABBUdQwzxk3fpJkEjtfsnpL7BpAgEBKBm2SM3955PCSjArCFc1gAlTCSCQQAI5EJYzn/PMPr4Sgt+rREEDCcDUuaIeCLv0e5u7+Z4oMulXNYwNVDH4CAK6dlmpvPJodvZu0W+u2An0vjay+ZAiEwk8AVmt1WemjmIuZaBFbW1H2ZSIESoAUg0IrpMGunjnlmZxL4lWa3kZ6YuYg5CNRK4ByVtoXExb879o93X8zSUAjQAhBKTYxsx41a9YaRV2e/Zi0R8GBBK2ZPAgB1EjhChX1WeqnOQiMr6xbZy5tMAVcaLQABV07LtDU0fXP4ZjZm4TUtPn9uzAIKzomAe/i7I+q/S1z8R675t2oVF/+R+QSxhgAgiGoY04idx9wi7w08zKiHC/6m9HLeKPC+QgJ+nr2RdGSFZaSSNeesCGqSRwARVJJM9DPG5STuOMauL995uH9A7p9UHpsUWxQh4GNqb+npIjtluq075t4n+XsmpIAJ0AIQcOV0mLak5rfu+M3syAT+oVV+ZOLXBRk0aGROrOmNwD3azK1Lu0pc/Htj5o8gcfHvjVWjWxEANIq/UOF7FNo674393QDzept0Xd4o8L5PAm5t+5HkDrhn9JlHrru5fwQpAgI8Aoigklom+tn2JOnueEwOwlI3R+4jfVlaJAiLMCJ0AufIwP8nuYMpqRiBlbW5e/9zc1mMWyNbU0mNYO+r0Nm116f72jPvnV6U+9+X3Cfgh9I0iQSBbgSu1kKPLeEhfbn4dyM09jK3vHFdGZtTEFvQAhBENfRshIca9fvuvqiR+iPg/hTuzOVWAVoE+mOY2l6+2DtIPE7iLZL+a3dO7eoWSv+PkSIh4I5SKB4GH47kuArdzIVk4BclB1Uc/3ky+Ivq3h38fCNEGpyARy3lfykiBrQADH7Q153D31Tg5nUX2lGeP+/5IemNkp/3LSjNK7m39F2S35W+SLpYekQKPc0lA3eTPifx+eXQa2tw+55SFr+VDpWuHTw7cugg4DdwNuz4zWwEBIjYIorYdDy5vt7SwHG1osq8pFV+L8eMv9Z3mfQFaXkphrSujHQ/gQelXnxkmzg4uUe/e/L7DtXBKql8An7jhv+H+BhQaREeuL6DqTv9QQX2+w/uE/CJUhOBSz+c5tBOfpfZNj8n9es3+zXL7krV3X9IS0ukagmcquw53iNjwCOAav8pqsrdF9RVpClVFdAlX99B+bOng6bTlIFfsbp50Ixq2n9+lfNOyb5bK0ikMAk8I7POk86UzpLukEjVE1hDRXi8DXr/V8+69BKI2iKL2nQEuM7+r/QjYfQMfUdc1rHygvI6WPLz99jSmjL4vyRfaGgdKO+Y6OfYco99P8f/nuQgLcbjSWZHn46SB/3UH/s0zI0WgHj/956W6StKj9XowmEq6zMllne98tpZuqrEPOvMyq89rSf5AzHWxtJyEqkaAlOVrTuatfVPzT9RTVHk2iOBZbTdZIngq0dgIW1GABBSbRS35Zva5SvFd+t7Dzfx/Vz6RN85DN/Rd9F7Sb8cvirKJX5EsKH0pg75bQn3KyD1RsB39r6ouFn5htbUz/P92Mh3jaRwCLglct9wzMGSIgQIAIrQCm/bJ2XSJKnOVgAfMw46DpQ8X1ZyM66b1lM8wfvu6A0traap68xaSfIdVI7JF/l7JV/op7Smt2l6Y0sODElhE/Cxe7s0T9hmYt1oBHzCRfEy+NZolVvhum2V94MlHzu/Un6zV2hziFnPLaPWkM6Xcvg/fEB+ri+Nl0hxEzhE5udwzKbsIxUY+UHsVoDFGjqPLKVy/1Qyv6OVX5ktCw2hKVSsW1RSPskM9c3N+UsUIsTGoRFYVga5lWZo3fI7LiZUYAIH8bcbPjv4DYE7S+T4o4b9qbN4j0CY40nTHT/nqxM0ZZVKwP+jOR63qflMJSZwID8lH5oe7GRR2XByiSy/qrxST1vIQX/YKbWTSq/+eKCl3Fp7UjimJ8mJ5zM+bns9vmPYLtuTTwyVU8TGIwI4s/hkfmBJJwYPJfx+KdU0QY49JBWp4xS3dcdPUlwEjpe5KR6LOfpERSZyMHt0QPc0DyHtISNsz6D/UI8rD/eaTy05UDpXGpRPCvv7TnL11Co4YX82lG8OzlM49vCBikzqQD4toBPP9rKljCDgUuWT2psBDpA4+cxkcL548ChAECJIF8pGjt10GFCZiR3QWwZ0EvmUbCnjbiGlZmL3fvfodZxEZ2Wwa0DHLaZ0J/Ahjtvk/m+Tcyj3E+sV+icN6Y75SyWcNPy6USrNxLw7PeuFv/3/eltgx63MIXUQmEvzt0rt+mKaBgsqNMGDeu+Of9wQZg8vgfHFyiOkwKYfrhO1E72nRz5x7tQPVPaphUBuY1XkEuAQAOjfJ7XKdue5kIaY9d3Dv0rg/P+UR8zpUBmf2rFWpj/+OBSflA3vCPcbK09z7Cb5v5ukU2WelGLN65jAziOvlz2DPvv23XMobzoUxbtACf7HeiwWsXvzomDZvnICp6qEInXItpHwItqu/H+nsQJ2U8mbNlb68IL9jHfP4YsLLXFLwtGSp7GlT8jgBWMzugF7P9ZAmRQ5MoHttOp9I69mTewEiNYiidZ0oBWtq6u1T2gfXTmmDz+G+v0r5RHba2MXleD3UA4p/n5UnOaUSM0T8FDNk6UUjzN8erVeqdzED/AvN38emcUCDxlcxlcED5gl17B/LCfz/PlbTjq9MeCOM4zjmTdWejteo/2/5hFAGP9oVVrh3rtvrLKAgnk/pu3/o+A+3Tb/uhbu0G1FgMt8QeN/rfeK8aemSc0S8OPDzzZrAqVXTYCTUtWEm8/fz8vdZB7So4DfyJ6/D4jGjwDs10cHzKeO3Tero5CEynhbQr7E6Mq8Mtp9bbg+xFh7BWymggvAinjTdWV7GXfdZSLwK31uOhsk+Vmxg4n9Bsmkhn03qaGMlIpwi9ViKTkUmS/flL2rRGYz5vZJINrnF/IX23tnEOJoeieWWId+1BFix8ClSvQxp+Pdvc9J9RPYWEW+JOV0rGXrKy0A9f+DNVXi3Cr411JIPay/LnumlwTEeZ0hLV1SfmVl4/EPSMUJbFB8F/YYkIBfU/VjtdkHzIfdIyFAABBJRZVk5puVzzdKyquMbK5TJn8sI6NWHttoeo0U0t3jyiX6l1NWBE711/ZhKnKl+oulxCYJZNv8Ieg5+u7X0d7Z5AE3pGz3T6iiHhxYNDlqoB9HbCldUJF/VTALKc/LxY1UHwF/hyGk+seWeuqDSs/wwL9XPi9e37llzJLO1xZV/MP7WaZ7M9d5F768yjtAul2qwqdc8pwqfqR6CExSMf5+SC7HFn7OrGsqPdMD/xT5HUqnuaq/M+5+BudJu0h+xanMZIZrSftLl0huYeEEUw4D3gTQwVRx8uvBF0kcsxky8MnLFU/Kk8B/yu3vBeC6Ox3dIU2owZZnVIZPeOdLf5PcZ+Bpqde0hDZcW1pPWl/aXPIyUvkE1lSW15WfLTl2EPiB5kN7RbjDPGarJEAAUCXd8PN2E7n7A/hC2HT6mgz4n4aMeEDl3ibdLz0lvSg5UJhfWkhyq8EkaaLkZaR6CGykYv5RT1FZlrKjvP5tlp7j9AwCs+kvLQB5Hwwel99vB7hfQJPJr+/5uXnZTfRN+kTZgxFwcPqXwbJg7xEIrKbll0p+9Y+UKYHXZeo3bs8k4IFqfic1PT6A78KPmGkWcxAY56/RkconsICy9FsyXPzLZxtVjgQAUVVXZca6qfV/K8u994y/o02f7X1ztkycAI9byq9gn/OPldYoP2tyjI0AAUBsNVadvfso6z2qy76nnP044vs9bclGORCYJwcna/bxWyrvAzWXSXGBEiAACLRiGjLrMJX7jobKbhfrE9SN7R9MsyZA/6Ryq383ZffFcrMkt5gJEADEXHvl2z5eWZ4orVp+1j3nOE1b7in5fXpS3gQIAMqr/7crqyPLy46cUiBAAJBCLZbrw6LK7kxp8XKzLZTbhdrarwWS8iZAAFBO/fsV1t9LTXf0LccbcimNAAFAaSiTymgleeM3A+Zu0Cs/Cvhzg+VTNARSIOBBqhzQM1hVCrVZsg8EACUDTSi7zeXLCdIcDfk0XeXuIF3ZUPkU2zwBHwOk/gl4TA0P+e13/kkQGEaAAGAYEhZ0ENhO8z/u+F337JMqcBvp1roLprwgCPAIoP9qcH+ekyS/4kuCQFcCBABdsbCwg4BfDTyw43fdsw+pwHdLk+sumPIgECkBn9d/JW0dqf2YXRMBAoCaQEdezFdl/94N+uBx+jeRrm7QBoqunwAtAMWZe3j3Q6Udi+/KHrkRIADIrcb799cnld37333gPe9XDptJjA0/MMpoMiAAKF5V39MuTQbrxS1mj8YIEAA0hj66gn2sHCXt0qDlT6jsraT9JH+xj5Q2AToBFqtfvznz+WK7sHXOBAgAcq794r77eDlG+njxXUvbw3eFh0ibSneUlisZhUiAFoDea+Ub2vS/e9+cLSEwbhwBAEdBUQKza4dfSNsX3bHk7S9VfutKB0vPl5w32UEgJgIHytgDYjIYW8MgQAAQRj3EZoXHBvittFvDhvs1wS9Jq0ju9cwdoyAklHgEMHZl7q9Nvjr2ZmwBgeEECACGM2FJbwTcEnC01PQXBG3tPdKu0gbSiRLfERAEUtIEfO4+XHILGAkCfREgAOgLGzu1CPj4+an0hUCIXC47/PrTStKB0mSJFC8BWnS6151b4I6V9uq+mqUQ6I0AAUBvnNhqZAJ+79ivHoX08Z67WvasrKlbBQ6SPIZAnU3KL6m8ayVPSf0RIAAYzm1uLfqD1GRH3OFWsSRKAj55808WZdUFabSHDd5XCrUJfjHZ5rcHHBSs1dLymg4SCPvzxXdIt0q3STdIV0nXSV43VVpYIhUn4I6mvtiRXiWwiCZ/lDYDCATKIEAAUAZF8ugkcIp+7CQ927kw4Hl/InWCtILkTyD7JGs5zSP5jsu+tC/mz2n+Iek+6eHW/GgtC49qG39imVScwIe1i8ezJ40bN1EQzpDWAAYEyiLgZ0kkCJRJ4P3K7HzpfdKDUujpBRnoO3erikQLW/9URwus+s81vj3fIpP/JC0Vn+lYHDKBQZo+Q/YL25ol4BPWJdLqzZoRROlcxPqvBoKnVz/o8xch5OLf/3HEniMQIAAYAQyLByYwSTn8Xdpi4JzizoAAIO76a9L6L6jw06UFmjSCstMlQACQbt2G4Jk73Z0j7R+CMQ3ZwF1s/+BzDZ7c7+QXkt+u8XgbJAhUQoAAoBKsZNpBwCewg6VfS+5Ul1vK9SJWRj3nGDz5rZQLpN3KAEgeEBiNAAHAaHRYVyYBv7fsRwITysw0grxyvIiVVS25sdtU4DyYlfvQkCBQOQECgMoRU0AHgfU0/w8pp34BoY6J0FEtzDZMYDaV78dk50l09mu4MnIqngAgp9oOw9dlZIZ7NfuxQA7PN3O7iy3zKMvh8YnHnjit9f/Aa9llHj3kNSYBAoAxEbFBBQTadzx/Vt6p3/HkcBGr4BDJIsu3y0uPGvnuLLzFyeAIEAAEVyVZGfQOeXultGXCXhMA9F+5qbaeuOXrAMktYcv1j4c9ITAYAQKAwfix9+AE/EjgXOkIad7Bswsuh1QvYnWATjF4miRwf5W+IdHkX8dRRBkjEiAAGBENK2ok4EcCe0juAf3mGsuto6gUL2J1cHMZKbFrH+PXyK+31wWQciAwGgECgNHosK5uAv7Qid8ScAfB8XUXXlF5tAD0DzaVAGBpIThVcivX/P3jYE8IlEuAAKBcnuQ2OAE3i/qVKI8Z4E/2xp5SuYg1UQ+xB0/tu/4bBe+9TQCkTAiMRoAAYDQ6rGuSwAYq/F/SIdJ8TRoyYNkEAP0DjJndKnK73bdl4f4RsCcEqiNAAFAdW3IenIBbA/aR/Nz0nYNn10gOsd/FNgKtVWiMAYAfXbkF61ppy5YfTCAQJAECgCCrBaOGEFhJv8+WjpaWHLIu9J8xXsRCYRpb8LSVwDlYdR+WuUKBiB0QGIkAAcBIZFgeGgE/T/2kdLPkO6w5pRgSAUD/tRQLu9fLxRMlB6mr9+8ue0KgXgIEAPXyprTBCfh5qu+w3MQawwhqsd3FDl5D5eUQegDgvikHSj4WPyKRIBAVAQKAqKoLYzsIrKr506WTJc+HmkK/iIXKzXaFGjy5b8qnpFulr0pzSyQIREeAACC6KsPgIQTer9/XS37Hetkh60L4SQDQfy2EyO6dcsdvpxwlLdO/a+wJgeYJEAA0XwdYMDgB35F5JEHfkfnxwCJSKCnUu9hQ+IxmR0gBwKYy9ELpHCmF8SlG4866TAgQAGRS0Zm46W8JuIPg7dKXpAWkplNIF7GmWRQtP4TgaTMZ7Y/2+OLvIIAEgWQIEAAkU5U40kHALQDflu6R3CKwqNRUIgDon3yT7Hyx90A+50tbSiQIJEeAACC5KsWhDgILat4tAlOkg6QmxhDgf0zg+0z+bG6dyXX1YcnP+H3H/w6JBIFkCXBySrZqcayDgB8FfFGaLB0urSbVlZaqq6AEy1m8Jp/8gZ7PSDdKv5fWk0gQSJ4AAUDyVYyDHQTcR2AvySd6d+Z6n+QBhqpKSyjjFavKPIN816nYx0nK34+I7pQOk0J+nVTmkSBQLgECgHJ5klscBHzR9+tcp0oexMVvEFTxmdbtlS//Y4LQZ3KAVnZyfbjuT5L81ogfETXZR0TFkyDQDAGfCEPoaduM95QKgZkEntLsCdLPpH/OXNz33Dza08MWr9B3DuxoAltI53tmwOR6+GRLEwfMi90hkAQBAoAkqhEnSibgVgEHAr+WHusjb/9f/Ur6eB/7ssusBPxK50bSw7Mu7umXP8jjVoTdpa0lWmMEgQSBNgECgDYJphAYTuAFLTpLOl7y44JnpbGSOxweKu021oas75nA1dryY5L7boyV5tAGW0oflT4o+dsRJAhAoAsBAoAuUFgEgS4EntGyUyQHA/7qm4ODzrSUfuwiuTf5RIlULoHnld3Rkvn7Ec2LUjv5dU93GNxRcr+LJl73VLEkCMRFgAAgrvrC2jAIvCwzHmrJg9VMkBaTSPURMH8HZQ68/HYHCQIQKEiAAKAgMDaHAAQgAAEIpECATjEp1CI+QAACEIAABAoSIAAoCIzNIQABCEAAAikQIABIoRbxAQIQgAAEIFCQAAFAQWBsDgEIQAACEEiBAAFACrWIDxCAAAQgAIGCBAgACgJjcwhAAAIQgEAKBAgAUqhFfIAABCAAAQgUJEAAUBAYm0MAAhCAAARSIEAAkEIt4gMEIAABCECgIAECgILA2BwCEIAABCCQAgECgBRqER8gAAEIQAACBQkQABQExuYQgAAEIACBFAgQAKRQi/gAAQhAAAIQKEiAAKAgMDaHAAQgAAEIpECAACCFWsQHCEAAAhCAQEECBAAFgbE5BCAAAQhAIAUCBAAp1CI+QAACEIAABAoSIAAoCIzNIQABCEAAAikQIABIoRbxAQIQgAAEIFCQAAFAQWBsDgEIQAACEEiBAAFACrWIDxCAAAQgAIGCBAgACgJjcwhAAAIQgEAKBAgAUqhFfIAABCAAAQgUJEAAUBAYm0MAAhCAAARSIEAAkEIt4gMEIAABCECgIAECgILA2BwCEIAABCCQAgECgBRqER8gAAEIQAACBQkQABQExuYQgAAEIACBFAgQAKRQi/gAAQhAAAIQKEiAAKAgMDaHAAQgAAEIL3nm/AAACGVJREFUpECAACCFWsQHCEAAAhCAQEECDgCmF9yHzSEAAQhAAAIQiJvAdAcAL8TtA9ZDAAIQgAAEIFCQwDQCgILE2BwCEIAABCCQAIEZAcC0BBzBBQhAAAIQgAAEeicwIwB4ovft2RICEIAABCAAgQQIPO5HAI8k4AguQAACEIAABCDQO4FHCAB6h8WWEIAABCAAgVQIzAgAHkrFG/yAAAQgAAEIQKAnAg+7BeDOnjZlIwhAAAIQgAAEUiEw2QHAlFS8wQ8IQAACEIAABHoiMCMAuKOnTdkIAhCAAAQgAIFUCEyZTZ4sKj2aikf4AQEIQAACEIDAqARe0dpF/QjgMeneUTdlJQQgAAEIQAACqRC4S47MGAfADl2Tilf4AQEIQAACEIDAqASu9Vq3ADhd+eqEvxCAAAQgAAEIJE7gKvvXDgAuTtxZ3IMABCAAAQhA4FUCf/fEnQCdFpE8JHA7IPAyEgQgAAEIQAACaRGYLnfc+f+J9gV/qn7cmJaPeAMBCEAAAhCAwBAC7vM34yOA7QDA688ZshE/IQABCEAAAhBIi8DZbXc6A4Az2wuZQgACEIAABCCQJIGz2l61+wD499yS+wHM5x8kCEAAAhCAAASSIvC0vFlMesFedbYAPK/fr0UGXkmCAAQgAAEIQCAZAqfLkxkXf3vUGQD494n+Q4IABCAAAQhAIDkCJ3R61PkIwMvnlR6SeAxgGiQIQAACEIBAGgSekhtLSc+13RnaAvCsVpzcXskUAhCAAAQgAIEkCJwkL167+NujoQGAl/3Mf0gQgAAEIAABCCRDYNi1fegjgLanN2hmjfYPphCAAAQgAAEIREvgZlnua7o/A/xa6tYC4JXDIoXX9mAGAhCAAAQgAIGYCPxUxs5y8bfxI7UALKB1d0sLeSMSBCAAAQhAAAJREnhSVq8geTpLGqkFwL0Fj5plS35AAAIQgAAEIBAbgcNl8LCLv50YqQXA65aXbpPm8g8SBCAAAQhAAAJREfAAfytL93WzeqQWAG97j0RfgG7UWAYBCEAAAhAIn4Cf/Xe9+Nv00VoAvH4Zya0AHiCIBAEIQAACEIBAHASekZm++39wJHNHawHwPvdLfn5AggAEIAABCEAgHgKHytQRL/52Y6wWAG+zoOR3CJf2DxIEIAABCEAAAkET8IV/Valr57+25bO3Z0aZTtM6f0LwvaNswyoIQAACEIAABMIgsI/M+OdYpvTSAuA8HChcKq3nHyQIQAACEIAABIIk4Gv1RtL0sazrNQBwPmtLl0nj/YMEAQhAAAIQgEBQBF6SNRtIV/ZiVS+PANr5+JnC/NIm7QVMIQABCEAAAhAIhsBBsuQ3vVpTpAXAec4j/Utawz9IEIAABCAAAQgEQeA6WfEWyYP/9JTGeg1waCb+lvAOUs8FDM2A3xCAAAQgAAEIlErAnfV3lgpdm4s8Amhb+5BmXNi72guYQgACEIAABCDQGIEvqORTi5Ze9BFAO3/v93vpQ+0FTCEAAQhAAAIQqJ3AKSrxg9Kwz/2OZUm/AYDz9SeD/Z4h/QFMgwQBCEAAAhCol8AtKs69/p/op9iifQA6y/Ang90fwFMSBCAAAQhAAAL1EfAofx+Q+rr428xBAgDv716HDgL87iEJAhCAAAQgAIHqCbyoIj4i3ThIUf10Ahxanr8W6I8GbTd0Bb8hAAEIQAACECidwOeU4wmD5lpGAGAbrpCc12b+QYIABCAAAQhAoBIC/6Ncv19GzmUFALblPGleiZECTYMEAQhAAAIQKJfAIcruv8vKsswAwDb9RVpS8mhEJAhAAAIQgAAEyiHwY2WzbzlZvZpL2QGAcz1D8jcDNvYPEgQgAAEIQAACAxH4rvb2YD+F3/UfrdQqAgCXd7bkvOkTYBokCEAAAhCAQH8E/Mz/K/3tOvpeVQUALtV9Au6RtpWqLEfZkyAAAQhAAAJJEfDr9Z+RflCVV4OMBNirTVtpw99JC/W6A9tBAAIQgAAEMibwtHzfUfIj9cpSHQGAjX+TdJK0in+QIAABCEAAAhDoSuAmLfV3dgYa5KdrzkMWDjoS4JDsRvzpEQPfLP1hxC1YAQEIQAACEMibgL/o91ap8ou/Mdf5bP4FledHAR6/eHNpDokEAQhAAAIQyJ3A8wLgXv6flzxfS6rrEcBQZ96oBb+R1hq6gt8QgAAEIACBjAjcIF8/Ll1Vt891tgB0+vawfvxScvlu7qjrUYSKIkEAAhCAAAQaJ+AP+nxH8sXfb8zVnppqAeh0dB39OEpav3Mh8xCAAAQgAIFECVwqvz4tXdOkfyHcebvZY0NpN+mBJmFQNgQgAAEIQKBCAo8o7/0kj5Tb6MXfPjb1CMBldyYPb3i19DPJQcm60niJBAEIQAACEIidwLNywF/w2166QPI1r/EUSgDQBjFNM+dKfiQwXfJjAd4WEAQSBCAAAQhER8Bvv/1c+pB0suTfwaQQ+gCMBmM5rfTXj/aQGElwNFKsgwAEIACBUAg8LkOOkH4k3ReKUUPtCD0AaNu7gGY+Je0prdZeyBQCEIAABCAQEIGbZIsv/L7rfyogu7qaEksA0Gn82/TDvSc/KPmzwyQIQAACEIBAUwR8ofdQ9+7D9vemjOin3BgDgLaf82jmPdIO0rul+SQSBCAAAQhAoGoCT6uA06UTpTOl56ToUswBQCfsufRjU2kb6V2SPz4UwiuOMoMEAQhAAAKRE3Cn9Guls6WzJN/pB9WhT/YUTqkEAEMdd4fBjVtaT1MHBBMkEgQgAAEIQGAsAndpA1/wr5QubukJTZNKqQYA3SppYS1cQ5rUoSU1v1hLi2vqVoO5JT9eIEEAAhCAQDoE3EzvD+28LD3aoQc1P0WaLN0huSOfe/Enn/4/OYAFTizA5xQAAAAASUVORK5CYII=;" vertex="1" parent="1">
          <mxGeometry x="306" y="580" width="75" height="75" as="geometry" />
        </mxCell>
      </root>
    </mxGraphModel>
  </diagram>
</mxfile>
